<svg width="177" height="36" viewBox="0 0 177 36" fill="none" xmlns="http://www.w3.org/2000/svg">
<path d="M151.027 13.5583L151.689 14.3073L151.027 13.5583ZM172.793 12.6831L172.131 13.4321L172.793 12.6831ZM155.409 7.5218L155.974 8.3467C156.203 8.1896 156.357 7.9444 156.398 7.6697C156.439 7.395 156.364 7.1155 156.191 6.8984L155.409 7.5218ZM153 4.5007L152.461 3.65838C152.222 3.81105 152.06 4.0578 152.014 4.3372C151.967 4.6167 152.042 4.9027 152.218 5.1242L153 4.5007ZM156.373 2.34278L157.154 1.71934C156.835 1.31893 156.265 1.22444 155.834 1.50045L156.373 2.34278ZM158.782 5.3639L158 5.9873C158.288 6.3491 158.787 6.4657 159.206 6.2694L158.782 5.3639ZM161.544 4.0691L161.968 4.9746C162.32 4.81 162.544 4.457 162.544 4.0691H161.544ZM161.544 1.00004L161.544 4.00543e-05C160.992 5.00543e-05 160.544 0.44776 160.544 1.00004H161.544ZM165.848 1H166.848C166.848 0.73478 166.743 0.48043 166.555 0.29289C166.368 0.10535 166.113 0 165.848 0V1ZM165.848 4.0691H164.848C164.848 4.4346 165.047 4.7709 165.368 4.9464L165.848 4.0691ZM150 14.0294L149.138 14.5357C149.277 14.7729 149.508 14.9422 149.776 15.0039C150.044 15.0656 150.325 15.0142 150.554 14.8618L150 14.0294ZM146 11.3626L145.017 11.1765C144.967 11.442 145.026 11.7165 145.182 11.9375C145.337 12.1586 145.575 12.3074 145.842 12.3501L146 11.3626ZM146.896 6.6351L147.178 5.6758C146.907 5.5961 146.615 5.6346 146.374 5.7819C146.133 5.9292 145.966 6.1715 145.913 6.449L146.896 6.6351ZM154 12.0323L154.371 12.9609C154.795 12.7915 155.051 12.3561 154.992 11.9031L154 12.0323ZM168.584 11.2373L169.004 12.1448L168.584 11.2373ZM160.156 13.4046L159.259 12.9617L158.732 14.0298L159.875 14.3643L160.156 13.4046ZM166.253 7.1848L165.833 6.2773L166.253 7.1848ZM175.67 5.7957L176.669 5.8325L176.706 4.8309L175.705 4.7963L175.67 5.7957ZM175.495 10.5474L175.461 11.5468L176.458 11.5812L176.495 10.5842L175.495 10.5474ZM165.203 14.3339L164.356 13.8014L165.203 14.3339ZM163.863 14.7778L163.471 15.6979L163.863 14.7778ZM162.733 24.2908L163.651 23.8937L162.733 24.2908ZM162.46 20.2981L163.423 20.5664L162.46 20.2981ZM150.364 12.8093C148.359 14.5827 147.608 17.0052 147.693 19.5267C147.777 22.0283 148.679 24.6744 150.033 27.0686C151.389 29.4677 153.233 31.676 155.275 33.295C157.304 34.9028 159.621 36 161.91 36V34C160.241 34 158.354 33.1828 156.518 31.7276C154.695 30.2834 153.015 28.2799 151.774 26.0844C150.53 23.8839 149.762 21.5524 149.692 19.4594C149.622 17.3862 150.231 15.597 151.689 14.3073L150.364 12.8093ZM161.91 36C164.193 36 166.57 34.9085 168.674 33.2926C170.794 31.6645 172.736 29.4313 174.159 26.9733C176.956 22.1435 177.976 15.9328 173.456 11.9341L172.131 13.4321C175.541 16.4483 175.077 21.3962 172.428 25.9711C171.129 28.2155 169.357 30.2462 167.456 31.7064C165.538 33.1788 163.584 34 161.91 34V36ZM173.456 11.9341C172.882 11.4264 172.434 11.1625 171.946 10.9155C171.474 10.6772 171.038 10.487 170.333 10.0714L169.317 11.7941C170.096 12.2537 170.649 12.5011 171.043 12.7004C171.42 12.8909 171.715 13.0646 172.131 13.4321L173.456 11.9341ZM160.811 12.5495C159.321 12.0618 157.389 11.5855 155.528 11.4789C153.714 11.3749 151.723 11.6074 150.364 12.8093L151.689 14.3073C152.434 13.6482 153.738 13.3795 155.414 13.4756C157.043 13.569 158.795 13.994 160.189 14.4502L160.811 12.5495ZM156.191 6.8984L153.782 3.87726L152.218 5.1242L154.627 8.1453L156.191 6.8984ZM153.539 5.343L156.912 3.18511L155.834 1.50045L152.461 3.65838L153.539 5.343ZM155.591 2.96623L158 5.9873L159.563 4.7404L157.154 1.71934L155.591 2.96623ZM159.206 6.2694L161.968 4.9746L161.12 3.16365L158.357 4.4584L159.206 6.2694ZM162.544 4.0691V1.00004H160.544V4.0691H162.544ZM161.544 2.00004L165.848 2V0L161.544 4.00543e-05L161.544 2.00004ZM164.848 1V4.0691H166.848V1H164.848ZM165.848 4.0691C165.368 4.9464 165.368 4.9463 165.368 4.9461C165.368 4.9461 165.367 4.946 165.367 4.9459C165.367 4.9458 165.367 4.9457 165.367 4.9456C165.366 4.9453 165.366 4.9451 165.366 4.945C165.365 4.9446 165.365 4.9445 165.365 4.9445C165.365 4.9444 165.366 4.945 165.368 4.9462C165.372 4.9486 165.38 4.9534 165.392 4.9606C165.417 4.975 165.456 4.9989 165.509 5.0324C165.613 5.0996 165.767 5.2042 165.949 5.3457C166.316 5.6308 166.784 6.0545 167.198 6.6111L168.802 5.417C168.253 4.6788 167.644 4.13 167.176 3.76632C166.941 3.58348 166.737 3.44459 166.589 3.34937C166.515 3.30169 166.454 3.26476 166.41 3.23854C166.387 3.22543 166.369 3.21498 166.356 3.2072C166.349 3.2033 166.343 3.20007 166.338 3.19751C166.336 3.19622 166.334 3.1951 166.332 3.19415C166.331 3.19368 166.331 3.19324 166.33 3.19285C166.33 3.19265 166.329 3.19247 166.329 3.19229C166.329 3.1922 166.329 3.19208 166.328 3.19203C166.328 3.19191 166.328 3.19179 165.848 4.0691ZM154.463 10.6588C154.685 9.8659 155.078 9.276 155.415 8.8842C155.584 8.6888 155.736 8.5458 155.84 8.4553C155.893 8.4101 155.933 8.3785 155.957 8.3603C155.968 8.3512 155.976 8.3455 155.979 8.3432C155.981 8.3421 155.981 8.3418 155.981 8.3424C155.98 8.3427 155.979 8.3432 155.978 8.3439C155.978 8.3442 155.977 8.3447 155.977 8.3451C155.976 8.3453 155.976 8.3456 155.976 8.3459C155.975 8.346 155.975 8.3462 155.975 8.3462C155.975 8.3465 155.974 8.3467 155.409 7.5218C154.844 6.6969 154.843 6.6972 154.843 6.6974C154.843 6.6975 154.843 6.6977 154.842 6.6978C154.842 6.6982 154.841 6.6985 154.841 6.6988C154.84 6.6995 154.839 6.7003 154.838 6.7011C154.835 6.7027 154.833 6.7046 154.83 6.7067C154.824 6.711 154.816 6.7162 154.808 6.7224C154.791 6.7348 154.768 6.7511 154.742 6.7714C154.689 6.812 154.618 6.8687 154.533 6.9415C154.365 7.087 154.141 7.2989 153.9 7.579C153.418 8.1382 152.856 8.9818 152.537 10.1185L154.463 10.6588ZM150 14.0294C150.862 13.5231 150.862 13.5228 150.862 13.5224C150.862 13.5223 150.862 13.5219 150.862 13.5217C150.861 13.5211 150.861 13.5206 150.861 13.52C150.86 13.5188 150.859 13.5175 150.858 13.516C150.856 13.5131 150.854 13.5096 150.852 13.5056C150.847 13.4976 150.841 13.4875 150.833 13.4753C150.818 13.4511 150.798 13.4187 150.772 13.3794C150.719 13.3008 150.645 13.1938 150.548 13.0667C150.355 12.8131 150.068 12.4751 149.686 12.1223C148.923 11.4188 147.75 10.6299 146.158 10.3752L145.842 12.3501C146.936 12.5251 147.763 13.0696 148.329 13.5921C148.611 13.8522 148.821 14.1003 148.958 14.2797C149.026 14.369 149.075 14.4401 149.105 14.4855C149.12 14.5082 149.131 14.5244 149.136 14.5331C149.139 14.5374 149.14 14.5399 149.14 14.5404C149.141 14.5406 149.14 14.5404 149.14 14.5396C149.14 14.5392 149.139 14.5387 149.139 14.5381C149.139 14.5378 149.139 14.5374 149.138 14.537C149.138 14.5368 149.138 14.5365 149.138 14.5364C149.138 14.5361 149.138 14.5357 150 14.0294ZM146.983 11.5487L147.878 6.8212L145.913 6.449L145.017 11.1765L146.983 11.5487ZM146.896 6.6351C146.613 7.5944 146.613 7.5944 146.613 7.5943C146.613 7.5943 146.613 7.5943 146.613 7.5943C146.613 7.5943 146.613 7.5943 146.613 7.5943C146.613 7.5944 146.614 7.5945 146.615 7.5949C146.617 7.5955 146.62 7.5965 146.625 7.5981C146.635 7.6012 146.652 7.6061 146.674 7.6129C146.717 7.6265 146.784 7.6475 146.869 7.6758C147.041 7.7323 147.29 7.8177 147.591 7.9309C148.195 8.1582 148.998 8.4932 149.808 8.9263C150.625 9.3626 151.41 9.8785 152.004 10.4559C152.603 11.0375 152.937 11.6098 153.008 12.1614L154.992 11.9031C154.84 10.7356 154.173 9.7737 153.398 9.0211C152.618 8.2641 151.655 7.6457 150.751 7.1625C149.841 6.676 148.952 6.3064 148.295 6.059C147.965 5.9348 147.69 5.8403 147.496 5.7763C147.398 5.7442 147.321 5.7198 147.267 5.703C147.24 5.6946 147.219 5.6882 147.204 5.6836C147.197 5.6814 147.191 5.6796 147.186 5.6783C147.184 5.6776 147.182 5.6771 147.181 5.6767C147.18 5.6765 147.18 5.6763 147.179 5.6761C147.179 5.6761 147.179 5.676 147.178 5.676C147.178 5.6759 147.178 5.6758 146.896 6.6351ZM153.629 11.1036C152.337 11.6197 151.301 12.1367 150.584 12.5271C150.226 12.7225 149.946 12.8864 149.754 13.0033C149.658 13.0617 149.584 13.1084 149.532 13.1413C149.506 13.1578 149.486 13.1708 149.472 13.1802C149.464 13.1849 149.459 13.1886 149.454 13.1914C149.452 13.1929 149.45 13.194 149.449 13.195C149.448 13.1954 149.448 13.1958 149.447 13.1962C149.447 13.1963 149.447 13.1965 149.446 13.1966C149.446 13.1967 149.446 13.1968 149.446 13.1968C149.446 13.1969 149.446 13.197 150 14.0294C150.554 14.8618 150.554 14.8619 150.554 14.862C150.554 14.862 150.554 14.8621 150.554 14.8621C150.554 14.8622 150.554 14.8623 150.553 14.8623C150.553 14.8624 150.553 14.8625 150.553 14.8625C150.553 14.8624 150.554 14.8621 150.555 14.8616C150.556 14.8606 150.559 14.8586 150.563 14.8558C150.572 14.85 150.587 14.8406 150.607 14.8278C150.647 14.8023 150.709 14.7631 150.793 14.7123C150.96 14.6107 151.212 14.4626 151.541 14.2835C152.199 13.925 153.163 13.4434 154.371 12.9609L153.629 11.1036ZM166.049 14.8664C166.963 13.4137 167.93 12.6422 169.004 12.1448L168.164 10.3298C166.723 10.9968 165.467 12.0364 164.356 13.8014L166.049 14.8664ZM159.875 14.3643C161.116 14.7273 162.563 15.3112 163.471 15.6979L164.254 13.8577C163.33 13.4644 161.795 12.8422 160.437 12.4448L159.875 14.3643ZM165.833 6.2773C162.906 7.6318 160.92 9.5987 159.259 12.9617L161.052 13.8474C162.534 10.8474 164.206 9.2342 166.673 8.0923L165.833 6.2773ZM175.705 4.7963C171.952 4.6668 168.653 4.9718 165.833 6.2773L166.673 8.0923C169.07 6.9829 171.995 6.6695 175.636 6.7951L175.705 4.7963ZM176.495 10.5842L176.669 5.8325L174.671 5.7589L174.496 10.5106L176.495 10.5842ZM169.004 12.1448C170.302 11.5443 172.018 11.428 175.461 11.5468L175.53 9.548C172.15 9.4314 169.958 9.4995 168.164 10.3298L169.004 12.1448ZM164.356 13.8014C164.339 13.8285 164.314 13.847 164.289 13.8553C164.267 13.8629 164.257 13.8588 164.254 13.8577L163.471 15.6979C164.446 16.1128 165.525 15.6996 166.049 14.8664L164.356 13.8014ZM161.815 24.6879L162.228 25.6413L164.063 24.8471L163.651 23.8937L161.815 24.6879ZM162.148 25.3123L162.428 29.4155L164.423 29.2794L164.143 25.1761L162.148 25.3123ZM163.261 26.2376L167.517 25.7435L167.286 23.7568L163.03 24.2509L163.261 26.2376ZM164.092 14.0804L161.764 19.1181L163.579 19.9572L165.908 14.9196L164.092 14.0804ZM161.708 19.2693L161.496 20.0297L163.423 20.5664L163.635 19.806L161.708 19.2693ZM162.26 18.6265L157.907 20.5948L158.731 22.4171L163.084 20.4488L162.26 18.6265ZM158.548 20.5326L154.212 19.5109L153.753 21.4576L158.09 22.4793L158.548 20.5326ZM157.389 21.1381L155.91 24.8764L157.77 25.6121L159.249 21.8738L157.389 21.1381ZM163.651 23.8937C163.196 22.8433 163.116 21.6689 163.423 20.5664L161.496 20.0297C161.066 21.5732 161.179 23.2174 161.815 24.6879L163.651 23.8937Z" fill="#CEE570"/>
<path d="M2.22656 15.625H4.46094L7 23.5391L9.53906 15.625H11.7734L7.90625 27H6.09375L2.22656 15.625ZM0.867188 15.625H3.17969L3.60938 24.3438V27H0.867188V15.625ZM10.8203 15.625H13.1406V27H10.3906V24.3438L10.8203 15.625ZM18.8672 27.1562C18.1797 27.1562 17.5651 27.0495 17.0234 26.8359C16.4818 26.6172 16.0234 26.3177 15.6484 25.9375C15.2786 25.5573 14.9948 25.1198 14.7969 24.625C14.6042 24.1302 14.5078 23.6068 14.5078 23.0547V22.7578C14.5078 22.138 14.5938 21.5651 14.7656 21.0391C14.9375 20.5078 15.1927 20.0443 15.5312 19.6484C15.8698 19.2526 16.2943 18.9453 16.8047 18.7266C17.3151 18.5026 17.9089 18.3906 18.5859 18.3906C19.1849 18.3906 19.7214 18.487 20.1953 18.6797C20.6693 18.8724 21.0703 19.1484 21.3984 19.5078C21.7318 19.8672 21.9844 20.3021 22.1562 20.8125C22.3333 21.3229 22.4219 21.8958 22.4219 22.5312V23.6016H15.5156V21.9531H19.8516V21.75C19.8568 21.4688 19.8073 21.2292 19.7031 21.0312C19.6042 20.8333 19.4583 20.6823 19.2656 20.5781C19.0729 20.474 18.8385 20.4219 18.5625 20.4219C18.276 20.4219 18.0391 20.4844 17.8516 20.6094C17.6693 20.7344 17.526 20.9062 17.4219 21.125C17.3229 21.3385 17.2526 21.5859 17.2109 21.8672C17.1693 22.1484 17.1484 22.4453 17.1484 22.7578V23.0547C17.1484 23.3672 17.1901 23.651 17.2734 23.9062C17.362 24.1615 17.487 24.3802 17.6484 24.5625C17.8151 24.7396 18.013 24.8776 18.2422 24.9766C18.4766 25.0755 18.7422 25.125 19.0391 25.125C19.3984 25.125 19.7526 25.0573 20.1016 24.9219C20.4505 24.7865 20.75 24.5625 21 24.25L22.1953 25.6719C22.0234 25.9167 21.7786 26.1536 21.4609 26.3828C21.1484 26.612 20.7734 26.7995 20.3359 26.9453C19.8984 27.0859 19.4089 27.1562 18.8672 27.1562ZM17 17.4453L18.5469 14.9922H21.3281L19.1484 17.4453H17ZM28.3516 25.0625V15H31V27H28.625L28.3516 25.0625ZM23.1641 22.875V22.7109C23.1641 22.0703 23.2344 21.487 23.375 20.9609C23.5156 20.4297 23.724 19.974 24 19.5938C24.276 19.2083 24.6198 18.9115 25.0312 18.7031C25.4427 18.4948 25.9167 18.3906 26.4531 18.3906C26.9323 18.3906 27.3516 18.5026 27.7109 18.7266C28.0703 18.9453 28.3776 19.2526 28.6328 19.6484C28.888 20.0443 29.0964 20.5078 29.2578 21.0391C29.4193 21.5651 29.5417 22.1328 29.625 22.7422V22.9375C29.5417 23.5104 29.4193 24.0521 29.2578 24.5625C29.0964 25.0677 28.888 25.5156 28.6328 25.9062C28.3776 26.2969 28.0677 26.6042 27.7031 26.8281C27.3438 27.0469 26.9219 27.1562 26.4375 27.1562C25.901 27.1562 25.4271 27.0495 25.0156 26.8359C24.6094 26.6224 24.2682 26.3229 23.9922 25.9375C23.7214 25.5521 23.5156 25.099 23.375 24.5781C23.2344 24.0573 23.1641 23.4896 23.1641 22.875ZM25.7969 22.7109V22.875C25.7969 23.1927 25.8177 23.487 25.8594 23.7578C25.901 24.0286 25.9714 24.2682 26.0703 24.4766C26.1745 24.6797 26.3099 24.8385 26.4766 24.9531C26.6484 25.0677 26.8594 25.125 27.1094 25.125C27.4479 25.125 27.7266 25.0443 27.9453 24.8828C28.1693 24.7214 28.3333 24.4922 28.4375 24.1953C28.5469 23.8984 28.5938 23.5495 28.5781 23.1484V22.5312C28.5885 22.1875 28.5651 21.8854 28.5078 21.625C28.4505 21.3594 28.3594 21.138 28.2344 20.9609C28.1146 20.7839 27.9609 20.651 27.7734 20.5625C27.5911 20.4688 27.375 20.4219 27.125 20.4219C26.8802 20.4219 26.6719 20.4792 26.5 20.5938C26.3333 20.7083 26.1979 20.8698 26.0938 21.0781C25.9896 21.2812 25.9141 21.5234 25.8672 21.8047C25.8203 22.0807 25.7969 22.3828 25.7969 22.7109ZM35.2734 18.5469V27H32.6328V18.5469H35.2734ZM32.4766 16.3672C32.4766 15.9922 32.612 15.6849 32.8828 15.4453C33.1536 15.2057 33.5052 15.0859 33.9375 15.0859C34.3698 15.0859 34.7214 15.2057 34.9922 15.4453C35.263 15.6849 35.3984 15.9922 35.3984 16.3672C35.3984 16.7422 35.263 17.0495 34.9922 17.2891C34.7214 17.5286 34.3698 17.6484 33.9375 17.6484C33.5052 17.6484 33.1536 17.5286 32.8828 17.2891C32.612 17.0495 32.4766 16.7422 32.4766 16.3672ZM40.4688 25.125C40.7135 25.125 40.9219 25.0807 41.0938 24.9922C41.2708 24.8984 41.4036 24.7682 41.4922 24.6016C41.5859 24.4297 41.6302 24.224 41.625 23.9844H44.1016C44.1068 24.6198 43.9505 25.1771 43.6328 25.6562C43.3203 26.1302 42.8932 26.5 42.3516 26.7656C41.8151 27.026 41.2083 27.1562 40.5312 27.1562C39.8698 27.1562 39.2917 27.0495 38.7969 26.8359C38.3021 26.6172 37.888 26.3151 37.5547 25.9297C37.2266 25.5391 36.9792 25.0833 36.8125 24.5625C36.651 24.0417 36.5703 23.4766 36.5703 22.8672V22.6875C36.5703 22.0781 36.651 21.513 36.8125 20.9922C36.9792 20.4661 37.2266 20.0104 37.5547 19.625C37.888 19.2344 38.2995 18.9323 38.7891 18.7188C39.2839 18.5 39.8594 18.3906 40.5156 18.3906C41.2188 18.3906 41.8385 18.5234 42.375 18.7891C42.9167 19.0547 43.3411 19.4401 43.6484 19.9453C43.9557 20.4505 44.1068 21.0625 44.1016 21.7812H41.625C41.6302 21.526 41.5911 21.2969 41.5078 21.0938C41.4245 20.8906 41.2943 20.7292 41.1172 20.6094C40.9453 20.4844 40.724 20.4219 40.4531 20.4219C40.1823 20.4219 39.9635 20.4818 39.7969 20.6016C39.6302 20.7214 39.5026 20.888 39.4141 21.1016C39.3307 21.3099 39.2734 21.5495 39.2422 21.8203C39.2161 22.0911 39.2031 22.3802 39.2031 22.6875V22.8672C39.2031 23.1797 39.2161 23.474 39.2422 23.75C39.2734 24.0208 39.3333 24.2604 39.4219 24.4688C39.5104 24.6719 39.638 24.8333 39.8047 24.9531C39.9714 25.0677 40.1927 25.125 40.4688 25.125ZM44.8984 22.8594V22.6953C44.8984 22.0755 44.987 21.5052 45.1641 20.9844C45.3411 20.4583 45.6016 20.0026 45.9453 19.6172C46.2891 19.2318 46.7135 18.9323 47.2188 18.7188C47.724 18.5 48.3073 18.3906 48.9688 18.3906C49.6354 18.3906 50.2214 18.5 50.7266 18.7188C51.237 18.9323 51.6641 19.2318 52.0078 19.6172C52.3516 20.0026 52.612 20.4583 52.7891 20.9844C52.9661 21.5052 53.0547 22.0755 53.0547 22.6953V22.8594C53.0547 23.474 52.9661 24.0443 52.7891 24.5703C52.612 25.0911 52.3516 25.5469 52.0078 25.9375C51.6641 26.3229 51.2396 26.6224 50.7344 26.8359C50.2292 27.0495 49.6458 27.1562 48.9844 27.1562C48.3229 27.1562 47.737 27.0495 47.2266 26.8359C46.7161 26.6224 46.2891 26.3229 45.9453 25.9375C45.6016 25.5469 45.3411 25.0911 45.1641 24.5703C44.987 24.0443 44.8984 23.474 44.8984 22.8594ZM47.5312 22.6953V22.8594C47.5312 23.1771 47.5547 23.474 47.6016 23.75C47.6484 24.026 47.7266 24.2682 47.8359 24.4766C47.9453 24.6797 48.0938 24.8385 48.2812 24.9531C48.4688 25.0677 48.7031 25.125 48.9844 25.125C49.2604 25.125 49.4896 25.0677 49.6719 24.9531C49.8594 24.8385 50.0078 24.6797 50.1172 24.4766C50.2266 24.2682 50.3047 24.026 50.3516 23.75C50.3984 23.474 50.4219 23.1771 50.4219 22.8594V22.6953C50.4219 22.388 50.3984 22.099 50.3516 21.8281C50.3047 21.5521 50.2266 21.3099 50.1172 21.1016C50.0078 20.888 49.8594 20.7214 49.6719 20.6016C49.4844 20.4818 49.25 20.4219 48.9688 20.4219C48.6927 20.4219 48.4609 20.4818 48.2734 20.6016C48.0911 20.7214 47.9453 20.888 47.8359 21.1016C47.7266 21.3099 47.6484 21.5521 47.6016 21.8281C47.5547 22.099 47.5312 22.388 47.5312 22.6953ZM58.6562 24.625C58.6562 24.4792 58.6068 24.3542 58.5078 24.25C58.4141 24.1406 58.2474 24.0417 58.0078 23.9531C57.7682 23.8594 57.4323 23.7656 57 23.6719C56.5885 23.5833 56.2005 23.4661 55.8359 23.3203C55.4766 23.1745 55.1615 22.9974 54.8906 22.7891C54.6198 22.5807 54.4062 22.3333 54.25 22.0469C54.099 21.7604 54.0234 21.4323 54.0234 21.0625C54.0234 20.7031 54.099 20.3646 54.25 20.0469C54.4062 19.724 54.6328 19.4401 54.9297 19.1953C55.2318 18.9453 55.599 18.75 56.0312 18.6094C56.4635 18.4635 56.9557 18.3906 57.5078 18.3906C58.2682 18.3906 58.9245 18.5078 59.4766 18.7422C60.0286 18.9714 60.4531 19.2943 60.75 19.7109C61.0521 20.1224 61.2031 20.599 61.2031 21.1406H58.5703C58.5703 20.9271 58.5339 20.7448 58.4609 20.5938C58.3932 20.4427 58.2812 20.3281 58.125 20.25C57.9688 20.1667 57.7604 20.125 57.5 20.125C57.3177 20.125 57.151 20.1589 57 20.2266C56.8542 20.2943 56.737 20.388 56.6484 20.5078C56.5599 20.6276 56.5156 20.7682 56.5156 20.9297C56.5156 21.0443 56.5417 21.1484 56.5938 21.2422C56.651 21.3307 56.737 21.4141 56.8516 21.4922C56.9661 21.5651 57.112 21.6328 57.2891 21.6953C57.4661 21.7526 57.6797 21.8047 57.9297 21.8516C58.4974 21.9557 59.0286 22.1042 59.5234 22.2969C60.0182 22.4896 60.4193 22.763 60.7266 23.1172C61.0391 23.4714 61.1953 23.9479 61.1953 24.5469C61.1953 24.9219 61.1094 25.2682 60.9375 25.5859C60.7656 25.8984 60.5182 26.1745 60.1953 26.4141C59.8724 26.6484 59.4844 26.8307 59.0312 26.9609C58.5781 27.0911 58.0677 27.1562 57.5 27.1562C56.6927 27.1562 56.0104 27.013 55.4531 26.7266C54.8958 26.4349 54.474 26.0703 54.1875 25.6328C53.9062 25.1901 53.7656 24.7422 53.7656 24.2891H56.2188C56.2292 24.5495 56.2917 24.763 56.4062 24.9297C56.526 25.0964 56.6849 25.2188 56.8828 25.2969C57.0807 25.375 57.3099 25.4141 57.5703 25.4141C57.8099 25.4141 58.0078 25.3802 58.1641 25.3125C58.3255 25.2448 58.4479 25.1536 58.5312 25.0391C58.6146 24.9193 58.6562 24.7812 58.6562 24.625ZM71.2734 25.0625V15H73.9219V27H71.5469L71.2734 25.0625ZM66.0859 22.875V22.7109C66.0859 22.0703 66.1562 21.487 66.2969 20.9609C66.4375 20.4297 66.6458 19.974 66.9219 19.5938C67.1979 19.2083 67.5417 18.9115 67.9531 18.7031C68.3646 18.4948 68.8385 18.3906 69.375 18.3906C69.8542 18.3906 70.2734 18.5026 70.6328 18.7266C70.9922 18.9453 71.2995 19.2526 71.5547 19.6484C71.8099 20.0443 72.0182 20.5078 72.1797 21.0391C72.3411 21.5651 72.4635 22.1328 72.5469 22.7422V22.9375C72.4635 23.5104 72.3411 24.0521 72.1797 24.5625C72.0182 25.0677 71.8099 25.5156 71.5547 25.9062C71.2995 26.2969 70.9896 26.6042 70.625 26.8281C70.2656 27.0469 69.8438 27.1562 69.3594 27.1562C68.8229 27.1562 68.349 27.0495 67.9375 26.8359C67.5312 26.6224 67.1901 26.3229 66.9141 25.9375C66.6432 25.5521 66.4375 25.099 66.2969 24.5781C66.1562 24.0573 66.0859 23.4896 66.0859 22.875ZM68.7188 22.7109V22.875C68.7188 23.1927 68.7396 23.487 68.7812 23.7578C68.8229 24.0286 68.8932 24.2682 68.9922 24.4766C69.0964 24.6797 69.2318 24.8385 69.3984 24.9531C69.5703 25.0677 69.7812 25.125 70.0312 25.125C70.3698 25.125 70.6484 25.0443 70.8672 24.8828C71.0911 24.7214 71.2552 24.4922 71.3594 24.1953C71.4688 23.8984 71.5156 23.5495 71.5 23.1484V22.5312C71.5104 22.1875 71.487 21.8854 71.4297 21.625C71.3724 21.3594 71.2812 21.138 71.1562 20.9609C71.0365 20.7839 70.8828 20.651 70.6953 20.5625C70.513 20.4688 70.2969 20.4219 70.0469 20.4219C69.8021 20.4219 69.5938 20.4792 69.4219 20.5938C69.2552 20.7083 69.1198 20.8698 69.0156 21.0781C68.9115 21.2812 68.8359 21.5234 68.7891 21.8047C68.7422 22.0807 68.7188 22.3828 68.7188 22.7109ZM79.8047 24.875V21.3906C79.8047 21.151 79.7708 20.9453 79.7031 20.7734C79.6354 20.6016 79.5286 20.4688 79.3828 20.375C79.237 20.276 79.0417 20.2266 78.7969 20.2266C78.599 20.2266 78.4297 20.2604 78.2891 20.3281C78.1484 20.3958 78.0417 20.4974 77.9688 20.6328C77.8958 20.7682 77.8594 20.9401 77.8594 21.1484H75.2266C75.2266 20.7578 75.3125 20.3958 75.4844 20.0625C75.6615 19.724 75.9115 19.4297 76.2344 19.1797C76.5625 18.9297 76.9531 18.737 77.4062 18.6016C77.8646 18.4609 78.375 18.3906 78.9375 18.3906C79.6094 18.3906 80.2083 18.5026 80.7344 18.7266C81.2656 18.9505 81.6849 19.2865 81.9922 19.7344C82.2995 20.1771 82.4531 20.7344 82.4531 21.4062V24.8672C82.4531 25.4193 82.4844 25.8385 82.5469 26.125C82.6094 26.4062 82.6979 26.6536 82.8125 26.8672V27H80.1719C80.0469 26.7396 79.9531 26.4219 79.8906 26.0469C79.8333 25.6667 79.8047 25.276 79.8047 24.875ZM80.125 21.8359L80.1406 23.2422H78.9766C78.7318 23.2422 78.5234 23.276 78.3516 23.3438C78.1849 23.4115 78.0495 23.5052 77.9453 23.625C77.8464 23.7396 77.7734 23.8698 77.7266 24.0156C77.6849 24.1615 77.6641 24.3151 77.6641 24.4766C77.6641 24.6328 77.7005 24.7734 77.7734 24.8984C77.8516 25.0182 77.9557 25.112 78.0859 25.1797C78.2161 25.2474 78.362 25.2812 78.5234 25.2812C78.8151 25.2812 79.0625 25.2266 79.2656 25.1172C79.474 25.0026 79.6328 24.8646 79.7422 24.7031C79.8516 24.5417 79.9062 24.3906 79.9062 24.25L80.4844 25.3281C80.3802 25.5365 80.2604 25.7474 80.125 25.9609C79.9948 26.1745 79.8307 26.3724 79.6328 26.5547C79.4401 26.7318 79.2031 26.8776 78.9219 26.9922C78.6406 27.1016 78.2995 27.1562 77.8984 27.1562C77.3776 27.1562 76.8984 27.0495 76.4609 26.8359C76.0286 26.6224 75.6823 26.3255 75.4219 25.9453C75.1615 25.5599 75.0312 25.1172 75.0312 24.6172C75.0312 24.1797 75.1094 23.7891 75.2656 23.4453C75.4271 23.1016 75.6693 22.8099 75.9922 22.5703C76.3151 22.3307 76.7266 22.1484 77.2266 22.0234C77.7266 21.8984 78.3151 21.8359 78.9922 21.8359H80.125ZM90.7656 15.625V27H88.0234V15.625H90.7656ZM95.1875 20.3594V22.4688H89.9844V20.3594H95.1875ZM95.6328 15.625V17.7422H89.9844V15.625H95.6328ZM100.773 24.875V21.3906C100.773 21.151 100.74 20.9453 100.672 20.7734C100.604 20.6016 100.497 20.4688 100.352 20.375C100.206 20.276 100.01 20.2266 99.7656 20.2266C99.5677 20.2266 99.3984 20.2604 99.2578 20.3281C99.1172 20.3958 99.0104 20.4974 98.9375 20.6328C98.8646 20.7682 98.8281 20.9401 98.8281 21.1484H96.1953C96.1953 20.7578 96.2812 20.3958 96.4531 20.0625C96.6302 19.724 96.8802 19.4297 97.2031 19.1797C97.5312 18.9297 97.9219 18.737 98.375 18.6016C98.8333 18.4609 99.3438 18.3906 99.9062 18.3906C100.578 18.3906 101.177 18.5026 101.703 18.7266C102.234 18.9505 102.654 19.2865 102.961 19.7344C103.268 20.1771 103.422 20.7344 103.422 21.4062V24.8672C103.422 25.4193 103.453 25.8385 103.516 26.125C103.578 26.4062 103.667 26.6536 103.781 26.8672V27H101.141C101.016 26.7396 100.922 26.4219 100.859 26.0469C100.802 25.6667 100.773 25.276 100.773 24.875ZM101.094 21.8359L101.109 23.2422H99.9453C99.7005 23.2422 99.4922 23.276 99.3203 23.3438C99.1536 23.4115 99.0182 23.5052 98.9141 23.625C98.8151 23.7396 98.7422 23.8698 98.6953 24.0156C98.6536 24.1615 98.6328 24.3151 98.6328 24.4766C98.6328 24.6328 98.6693 24.7734 98.7422 24.8984C98.8203 25.0182 98.9245 25.112 99.0547 25.1797C99.1849 25.2474 99.3307 25.2812 99.4922 25.2812C99.7839 25.2812 100.031 25.2266 100.234 25.1172C100.443 25.0026 100.602 24.8646 100.711 24.7031C100.82 24.5417 100.875 24.3906 100.875 24.25L101.453 25.3281C101.349 25.5365 101.229 25.7474 101.094 25.9609C100.964 26.1745 100.799 26.3724 100.602 26.5547C100.409 26.7318 100.172 26.8776 99.8906 26.9922C99.6094 27.1016 99.2682 27.1562 98.8672 27.1562C98.3464 27.1562 97.8672 27.0495 97.4297 26.8359C96.9974 26.6224 96.651 26.3255 96.3906 25.9453C96.1302 25.5599 96 25.1172 96 24.6172C96 24.1797 96.0781 23.7891 96.2344 23.4453C96.3958 23.1016 96.638 22.8099 96.9609 22.5703C97.2839 22.3307 97.6953 22.1484 98.1953 22.0234C98.6953 21.8984 99.2839 21.8359 99.9609 21.8359H101.094ZM107.539 20.3359V27H104.906V18.5469H107.375L107.539 20.3359ZM107.219 22.4844L106.617 22.5C106.617 21.9062 106.688 21.3594 106.828 20.8594C106.969 20.3594 107.177 19.9245 107.453 19.5547C107.729 19.1849 108.068 18.8984 108.469 18.6953C108.875 18.4922 109.344 18.3906 109.875 18.3906C110.245 18.3906 110.581 18.4479 110.883 18.5625C111.185 18.6719 111.445 18.8464 111.664 19.0859C111.883 19.3203 112.049 19.6276 112.164 20.0078C112.284 20.3828 112.344 20.8333 112.344 21.3594V27H109.711V21.6953C109.711 21.3359 109.669 21.0651 109.586 20.8828C109.508 20.7005 109.393 20.5781 109.242 20.5156C109.091 20.4531 108.906 20.4219 108.688 20.4219C108.458 20.4219 108.253 20.474 108.07 20.5781C107.888 20.6823 107.732 20.8281 107.602 21.0156C107.477 21.1979 107.38 21.4141 107.312 21.6641C107.25 21.9141 107.219 22.1875 107.219 22.4844ZM112.047 22.4844L111.312 22.5C111.312 21.9062 111.378 21.3594 111.508 20.8594C111.643 20.3594 111.844 19.9245 112.109 19.5547C112.38 19.1849 112.716 18.8984 113.117 18.6953C113.518 18.4922 113.984 18.3906 114.516 18.3906C114.901 18.3906 115.255 18.4479 115.578 18.5625C115.901 18.6771 116.18 18.862 116.414 19.1172C116.648 19.3724 116.831 19.7109 116.961 20.1328C117.091 20.5495 117.156 21.0651 117.156 21.6797V27H114.516V21.6797C114.516 21.3307 114.474 21.0677 114.391 20.8906C114.312 20.7083 114.198 20.5859 114.047 20.5234C113.896 20.4557 113.716 20.4219 113.508 20.4219C113.258 20.4219 113.042 20.474 112.859 20.5781C112.677 20.6823 112.523 20.8281 112.398 21.0156C112.279 21.1979 112.19 21.4141 112.133 21.6641C112.076 21.9141 112.047 22.1875 112.047 22.4844ZM121.531 18.5469V27H118.891V18.5469H121.531ZM119.008 17.6172L120.555 15.1641H123.336L121.156 17.6172H119.008ZM126.008 15V27H123.367V15H126.008ZM130.414 18.5469V27H127.773V18.5469H130.414ZM127.617 16.3672C127.617 15.9922 127.753 15.6849 128.023 15.4453C128.294 15.2057 128.646 15.0859 129.078 15.0859C129.51 15.0859 129.862 15.2057 130.133 15.4453C130.404 15.6849 130.539 15.9922 130.539 16.3672C130.539 16.7422 130.404 17.0495 130.133 17.2891C129.862 17.5286 129.51 17.6484 129.078 17.6484C128.646 17.6484 128.294 17.5286 128.023 17.2891C127.753 17.0495 127.617 16.7422 127.617 16.3672ZM136.43 24.875V21.3906C136.43 21.151 136.396 20.9453 136.328 20.7734C136.26 20.6016 136.154 20.4688 136.008 20.375C135.862 20.276 135.667 20.2266 135.422 20.2266C135.224 20.2266 135.055 20.2604 134.914 20.3281C134.773 20.3958 134.667 20.4974 134.594 20.6328C134.521 20.7682 134.484 20.9401 134.484 21.1484H131.852C131.852 20.7578 131.938 20.3958 132.109 20.0625C132.286 19.724 132.536 19.4297 132.859 19.1797C133.188 18.9297 133.578 18.737 134.031 18.6016C134.49 18.4609 135 18.3906 135.562 18.3906C136.234 18.3906 136.833 18.5026 137.359 18.7266C137.891 18.9505 138.31 19.2865 138.617 19.7344C138.924 20.1771 139.078 20.7344 139.078 21.4062V24.8672C139.078 25.4193 139.109 25.8385 139.172 26.125C139.234 26.4062 139.323 26.6536 139.438 26.8672V27H136.797C136.672 26.7396 136.578 26.4219 136.516 26.0469C136.458 25.6667 136.43 25.276 136.43 24.875ZM136.75 21.8359L136.766 23.2422H135.602C135.357 23.2422 135.148 23.276 134.977 23.3438C134.81 23.4115 134.674 23.5052 134.57 23.625C134.471 23.7396 134.398 23.8698 134.352 24.0156C134.31 24.1615 134.289 24.3151 134.289 24.4766C134.289 24.6328 134.326 24.7734 134.398 24.8984C134.477 25.0182 134.581 25.112 134.711 25.1797C134.841 25.2474 134.987 25.2812 135.148 25.2812C135.44 25.2812 135.688 25.2266 135.891 25.1172C136.099 25.0026 136.258 24.8646 136.367 24.7031C136.477 24.5417 136.531 24.3906 136.531 24.25L137.109 25.3281C137.005 25.5365 136.885 25.7474 136.75 25.9609C136.62 26.1745 136.456 26.3724 136.258 26.5547C136.065 26.7318 135.828 26.8776 135.547 26.9922C135.266 27.1016 134.924 27.1562 134.523 27.1562C134.003 27.1562 133.523 27.0495 133.086 26.8359C132.654 26.6224 132.307 26.3255 132.047 25.9453C131.786 25.5599 131.656 25.1172 131.656 24.6172C131.656 24.1797 131.734 23.7891 131.891 23.4453C132.052 23.1016 132.294 22.8099 132.617 22.5703C132.94 22.3307 133.352 22.1484 133.852 22.0234C134.352 21.8984 134.94 21.8359 135.617 21.8359H136.75Z" fill="#CEE570"/>
</svg>
