<svg width="296" height="232" viewBox="0 0 296 232" fill="none" xmlns="http://www.w3.org/2000/svg">
<path d="M278.43 35.53H17.5699C13.2257 35.53 9.05938 37.2557 5.98753 40.3276C2.91569 43.3994 1.18994 47.5657 1.18994 51.91V188.13C1.18994 192.474 2.91569 196.641 5.98753 199.712C9.05938 202.784 13.2257 204.51 17.5699 204.51H48.1999L71.9999 230.7V204.51H278.43C282.774 204.51 286.941 202.784 290.012 199.712C293.084 196.641 294.81 192.474 294.81 188.13V51.91C294.81 47.5657 293.084 43.3994 290.012 40.3276C286.941 37.2557 282.774 35.53 278.43 35.53V35.53Z" fill="white"/>
<path d="M278.43 35.53C282.774 35.53 286.941 37.2557 290.012 40.3276C293.084 43.3994 294.81 47.5657 294.81 51.91V188.13C294.81 192.474 293.084 196.641 290.012 199.712C286.941 202.784 282.774 204.51 278.43 204.51H71.9999V230.7L48.1999 204.51H17.5699C13.2257 204.51 9.05938 202.784 5.98753 199.712C2.91569 196.641 1.18994 192.474 1.18994 188.13V51.91C1.18994 47.5657 2.91569 43.3994 5.98753 40.3276C9.05938 37.2557 13.2257 35.53 17.5699 35.53H278.43ZM278.43 34.53H17.5699C12.9621 34.5353 8.54451 36.3681 5.28627 39.6263C2.02804 42.8845 0.195235 47.3021 0.189941 51.91V188.13C0.192591 192.739 2.02454 197.158 5.28335 200.417C8.54216 203.675 12.9613 205.507 17.5699 205.51H47.7599L71.2099 231.37C71.3034 231.474 71.4176 231.556 71.545 231.613C71.6725 231.67 71.8104 231.7 71.9499 231.7C72.0734 231.701 72.1959 231.677 72.3099 231.63C72.4979 231.557 72.6595 231.43 72.7737 231.264C72.8879 231.098 72.9493 230.901 72.9499 230.7V205.51H278.43C283.039 205.507 287.458 203.675 290.717 200.417C293.975 197.158 295.807 192.739 295.81 188.13V51.91C295.805 47.3021 293.972 42.8845 290.714 39.6263C287.455 36.3681 283.038 34.5353 278.43 34.53V34.53Z" fill="#D1D3D4"/>
<path d="M278.76 120.86H225.4C225.267 120.86 225.14 120.807 225.046 120.714C224.953 120.62 224.9 120.493 224.9 120.36V55.81C224.9 55.6774 224.953 55.5502 225.046 55.4564C225.14 55.3627 225.267 55.31 225.4 55.31H278.76C278.893 55.31 279.02 55.3627 279.113 55.4564C279.207 55.5502 279.26 55.6774 279.26 55.81V120.36C279.26 120.493 279.207 120.62 279.113 120.714C279.02 120.807 278.893 120.86 278.76 120.86ZM225.9 119.86H278.26V56.31H225.9V119.86Z" fill="#D1D3D4"/>
<path d="M257.15 63.42H254V60.23C254 60.0045 253.91 59.7883 253.751 59.6289C253.592 59.4695 253.375 59.38 253.15 59.38H251.1C250.988 59.38 250.878 59.402 250.775 59.4447C250.672 59.4874 250.578 59.55 250.499 59.6289C250.42 59.7079 250.357 59.8016 250.315 59.9047C250.272 60.0078 250.25 60.1184 250.25 60.23V63.42H247C246.774 63.42 246.558 63.5095 246.399 63.6689C246.239 63.8283 246.15 64.0445 246.15 64.27V66.27C246.15 66.4954 246.239 66.7116 246.399 66.871C246.558 67.0304 246.774 67.12 247 67.12H250.19V70.31C250.19 70.4216 250.212 70.5321 250.255 70.6353C250.297 70.7384 250.36 70.8321 250.439 70.911C250.518 70.9899 250.612 71.0526 250.715 71.0953C250.818 71.138 250.928 71.16 251.04 71.16H253.09C253.315 71.16 253.532 71.0704 253.691 70.911C253.85 70.7516 253.94 70.5354 253.94 70.31V67.12H257.13C257.355 67.12 257.572 67.0304 257.731 66.871C257.89 66.7116 257.98 66.4954 257.98 66.27V64.27C257.98 64.048 257.893 63.8347 257.738 63.6759C257.583 63.5171 257.372 63.4252 257.15 63.42V63.42Z" fill="#8870E5"/>
<path d="M256.81 77.64H231.33C231.197 77.64 231.07 77.5873 230.976 77.4935C230.883 77.3998 230.83 77.2726 230.83 77.14C230.83 77.0074 230.883 76.8802 230.976 76.7864C231.07 76.6927 231.197 76.64 231.33 76.64H256.81C256.942 76.64 257.07 76.6927 257.163 76.7864C257.257 76.8802 257.31 77.0074 257.31 77.14C257.307 77.2718 257.254 77.3975 257.161 77.4907C257.067 77.5839 256.942 77.6374 256.81 77.64Z" fill="#D1D3D4"/>
<path d="M272.84 77.64H264.19C264.058 77.6374 263.932 77.5839 263.839 77.4907C263.746 77.3975 263.693 77.2718 263.69 77.14C263.69 77.0074 263.743 76.8802 263.836 76.7864C263.93 76.6927 264.057 76.64 264.19 76.64H272.84C272.973 76.64 273.1 76.6927 273.193 76.7864C273.287 76.8802 273.34 77.0074 273.34 77.14C273.337 77.2718 273.284 77.3975 273.191 77.4907C273.097 77.5839 272.972 77.6374 272.84 77.64Z" fill="#D1D3D4"/>
<path d="M251 84.63H231.3C231.167 84.63 231.04 84.5773 230.946 84.4835C230.852 84.3898 230.8 84.2626 230.8 84.13C230.8 83.9974 230.852 83.8702 230.946 83.7764C231.04 83.6827 231.167 83.63 231.3 83.63H251C251.132 83.63 251.26 83.6827 251.353 83.7764C251.447 83.8702 251.5 83.9974 251.5 84.13C251.5 84.2626 251.447 84.3898 251.353 84.4835C251.26 84.5773 251.132 84.63 251 84.63Z" fill="#D1D3D4"/>
<path d="M271.88 84.63H264.19C264.057 84.63 263.93 84.5773 263.836 84.4835C263.743 84.3898 263.69 84.2626 263.69 84.13C263.693 83.9982 263.746 83.8725 263.839 83.7793C263.932 83.686 264.058 83.6325 264.19 83.63H271.88C272.012 83.6325 272.137 83.686 272.231 83.7793C272.324 83.8725 272.377 83.9982 272.38 84.13C272.38 84.2626 272.327 84.3898 272.233 84.4835C272.14 84.5773 272.013 84.63 271.88 84.63Z" fill="#D1D3D4"/>
<path d="M253.9 91.63H231.33C231.197 91.63 231.07 91.5773 230.976 91.4835C230.883 91.3898 230.83 91.2626 230.83 91.13C230.83 90.9974 230.883 90.8702 230.976 90.7764C231.07 90.6827 231.197 90.63 231.33 90.63H253.9C254.032 90.6325 254.157 90.686 254.251 90.7793C254.344 90.8725 254.397 90.9982 254.4 91.13C254.4 91.2626 254.347 91.3898 254.253 91.4835C254.16 91.5773 254.032 91.63 253.9 91.63Z" fill="#D1D3D4"/>
<path d="M272.84 91.63H264.19C264.057 91.63 263.93 91.5773 263.836 91.4835C263.743 91.3898 263.69 91.2626 263.69 91.13C263.693 90.9982 263.746 90.8725 263.839 90.7793C263.932 90.686 264.058 90.6325 264.19 90.63H272.84C272.972 90.6325 273.097 90.686 273.191 90.7793C273.284 90.8725 273.337 90.9982 273.34 91.13C273.34 91.2626 273.287 91.3898 273.193 91.4835C273.1 91.5773 272.973 91.63 272.84 91.63Z" fill="#D1D3D4"/>
<path d="M251 98.63H231.3C231.167 98.63 231.04 98.5773 230.946 98.4836C230.852 98.3898 230.8 98.2626 230.8 98.13C230.8 97.9974 230.852 97.8702 230.946 97.7764C231.04 97.6827 231.167 97.63 231.3 97.63H251C251.132 97.63 251.26 97.6827 251.353 97.7764C251.447 97.8702 251.5 97.9974 251.5 98.13C251.5 98.2626 251.447 98.3898 251.353 98.4836C251.26 98.5773 251.132 98.63 251 98.63Z" fill="#D1D3D4"/>
<path d="M271.4 98.63H264.19C264.057 98.63 263.93 98.5773 263.836 98.4836C263.743 98.3898 263.69 98.2626 263.69 98.13C263.693 97.9982 263.746 97.8725 263.839 97.7793C263.932 97.6861 264.058 97.6326 264.19 97.63H271.4C271.532 97.6326 271.657 97.6861 271.751 97.7793C271.844 97.8725 271.897 97.9982 271.9 98.13C271.9 98.2626 271.847 98.3898 271.753 98.4836C271.66 98.5773 271.533 98.63 271.4 98.63Z" fill="#D1D3D4"/>
<path d="M256.81 105.63H231.33C231.197 105.63 231.07 105.577 230.976 105.484C230.883 105.39 230.83 105.263 230.83 105.13C230.83 104.997 230.883 104.87 230.976 104.776C231.07 104.683 231.197 104.63 231.33 104.63H256.81C256.942 104.633 257.067 104.686 257.161 104.779C257.254 104.873 257.307 104.998 257.31 105.13C257.31 105.263 257.257 105.39 257.163 105.484C257.07 105.577 256.942 105.63 256.81 105.63Z" fill="#D1D3D4"/>
<path d="M272.84 105.63H264.19C264.057 105.63 263.93 105.577 263.836 105.484C263.743 105.39 263.69 105.263 263.69 105.13C263.693 104.998 263.746 104.873 263.839 104.779C263.932 104.686 264.058 104.633 264.19 104.63H272.84C272.972 104.633 273.097 104.686 273.191 104.779C273.284 104.873 273.337 104.998 273.34 105.13C273.34 105.263 273.287 105.39 273.193 105.484C273.1 105.577 272.973 105.63 272.84 105.63Z" fill="#D1D3D4"/>
<path d="M248.21 112.63H231.33C231.197 112.63 231.07 112.577 230.976 112.484C230.883 112.39 230.83 112.263 230.83 112.13C230.83 111.997 230.883 111.87 230.976 111.776C231.07 111.683 231.197 111.63 231.33 111.63H248.21C248.342 111.63 248.47 111.683 248.563 111.776C248.657 111.87 248.71 111.997 248.71 112.13C248.71 112.263 248.657 112.39 248.563 112.484C248.47 112.577 248.342 112.63 248.21 112.63Z" fill="#D1D3D4"/>
<path d="M272.84 112.63H264.19C264.057 112.63 263.93 112.577 263.836 112.484C263.743 112.39 263.69 112.263 263.69 112.13C263.693 111.998 263.746 111.873 263.839 111.779C263.932 111.686 264.058 111.633 264.19 111.63H272.84C272.972 111.633 273.097 111.686 273.191 111.779C273.284 111.873 273.337 111.998 273.34 112.13C273.34 112.263 273.287 112.39 273.193 112.484C273.1 112.577 272.973 112.63 272.84 112.63Z" fill="#D1D3D4"/>
<path d="M83.6099 127.58C83.6099 126.69 80.1199 123.29 79.5599 122.58C78.2499 120.94 75.9699 119.77 75.4799 117.65C75.0599 115.87 76.4799 112.33 76.2999 110.51C76.1224 109.142 75.7868 107.8 75.2999 106.51C74.9424 105.189 74.0806 104.062 72.8999 103.37C72.6463 103.221 72.3518 103.156 72.0589 103.184C71.7659 103.213 71.4897 103.334 71.2699 103.53C71.0339 103.894 70.938 104.331 70.9999 104.76C71.1421 106.642 71.0683 108.535 70.7799 110.4C68.5199 121.9 55.4899 109.96 50.7799 106.52C47.1799 103.92 43.4499 101.08 39.0399 100.57C38.3598 100.432 37.653 100.535 37.0399 100.86C36.6515 101.175 36.3746 101.607 36.2504 102.091C36.1261 102.575 36.161 103.087 36.3499 103.55C36.7461 104.468 37.3402 105.288 38.0899 105.95C37.4287 105.295 36.6433 104.778 35.7799 104.43C35.343 104.268 34.8682 104.236 34.4136 104.339C33.959 104.442 33.5442 104.675 33.2199 105.01C32.9538 105.402 32.8116 105.866 32.8116 106.34C32.8116 106.814 32.9538 107.277 33.2199 107.67C33.7673 108.442 34.4687 109.092 35.2799 109.58C34.8158 108.981 34.2011 108.515 33.4985 108.23C32.7958 107.946 32.0303 107.853 31.2799 107.96C30.0999 109.76 31.6399 112.07 33.1899 113.56C35.8625 116.338 39.0478 118.573 42.5699 120.14C45.9999 121.5 49.2899 122.7 52.2899 125C59.2899 130.39 65.4099 137.08 70.9499 144C72.8084 140.597 74.9919 137.382 77.4699 134.4C78.9999 132.52 83.6099 129.87 83.6099 127.58Z" fill="white"/>
<path d="M70.9999 144.44C70.931 144.44 70.8628 144.425 70.8005 144.396C70.7382 144.367 70.6833 144.323 70.6399 144.27C63.9999 136 58.0699 130 51.9999 125.34C49.3043 123.442 46.351 121.941 43.2299 120.88L42.3899 120.55C38.817 118.946 35.5826 116.675 32.8599 113.86C31.9899 113.03 29.2899 110.13 30.8599 107.69C30.894 107.636 30.9394 107.59 30.9929 107.556C31.0464 107.521 31.1068 107.499 31.1699 107.49C31.6436 107.415 32.1261 107.415 32.5999 107.49C32.382 107.049 32.2866 106.557 32.3235 106.066C32.3605 105.576 32.5284 105.104 32.8099 104.7C33.1855 104.301 33.669 104.019 34.2015 103.89C34.7341 103.76 35.2928 103.788 35.8099 103.97H35.9499C35.9005 103.859 35.8571 103.746 35.8199 103.63C35.5954 103.072 35.5589 102.455 35.7159 101.874C35.8728 101.293 36.2147 100.779 36.6899 100.41C37.3953 100.027 38.2114 99.9 38.9999 100.05C43.3099 100.55 46.9299 103.17 50.4299 105.71L50.9499 106.08C51.5299 106.5 52.2299 107.08 53.0299 107.66C57.0299 110.76 63.6999 115.95 67.4799 114.52C68.8799 114 69.8199 112.52 70.2699 110.25C70.5416 108.507 70.6187 106.74 70.4999 104.98V104.7C70.4243 104.162 70.5566 103.614 70.8699 103.17C71.1528 102.896 71.5164 102.719 71.907 102.667C72.2977 102.615 72.6948 102.69 73.0399 102.88C73.6859 103.24 74.2527 103.727 74.7063 104.311C75.1599 104.895 75.491 105.565 75.6799 106.28C76.168 107.615 76.5035 109 76.6799 110.41C76.6984 111.575 76.5503 112.737 76.2399 113.86C75.8904 115.04 75.7549 116.273 75.8399 117.5C76.2872 118.75 77.1075 119.832 78.1899 120.6C78.784 121.104 79.3358 121.656 79.8399 122.25C79.9799 122.43 80.3099 122.78 80.7199 123.25C82.8899 125.55 83.9899 126.85 83.9899 127.56C83.9899 129.27 81.9899 130.94 80.0399 132.56C79.2194 133.191 78.4564 133.894 77.7599 134.66C75.3043 137.62 73.1377 140.807 71.2899 144.18C71.2556 144.248 71.2045 144.305 71.1414 144.347C71.0783 144.389 71.0055 144.414 70.9299 144.42L70.9999 144.44ZM31.5799 108.37C30.5799 110.19 32.8099 112.52 33.5199 113.21C36.16 115.94 39.2959 118.143 42.7599 119.7L43.5899 120.03C46.7934 121.119 49.8242 122.661 52.5899 124.61C58.5899 129.18 64.3799 135.08 70.8899 143.16C72.7065 139.986 74.7942 136.974 77.1299 134.16C77.8614 133.343 78.6683 132.596 79.5399 131.93C81.1499 130.59 83.1499 128.93 83.1599 127.64C83.0899 127.08 80.9499 124.8 80.1599 123.95C79.7199 123.48 79.3699 123.11 79.2199 122.95C78.7499 122.395 78.2348 121.88 77.6799 121.41C76.4533 120.522 75.534 119.275 75.0499 117.84C74.9276 116.493 75.0633 115.136 75.4499 113.84C75.7317 112.81 75.8729 111.747 75.8699 110.68C75.7096 109.342 75.3976 108.027 74.9399 106.76C74.7867 106.162 74.5172 105.599 74.1465 105.105C73.7759 104.611 73.3115 104.195 72.7799 103.88C72.3999 103.71 71.8999 103.67 71.6899 103.93C71.5358 104.207 71.4795 104.527 71.5299 104.84V105C71.6595 106.827 71.579 108.662 71.2899 110.47C70.7699 113.12 69.6399 114.79 67.9199 115.47C63.6499 117.07 56.9899 111.9 52.5899 108.47C51.7999 107.86 51.1099 107.32 50.5299 106.9L50.0199 106.53C46.6099 104.06 43.0899 101.53 39.0199 101.04C38.4457 100.918 37.847 100.992 37.3199 101.25C37.0205 101.512 36.8104 101.861 36.7189 102.248C36.6275 102.636 36.6593 103.042 36.8099 103.41C37.1906 104.262 37.7499 105.023 38.4499 105.64C38.5202 105.727 38.5564 105.836 38.5518 105.948C38.5472 106.06 38.5021 106.166 38.425 106.247C38.3478 106.328 38.2438 106.378 38.1324 106.388C38.0211 106.397 37.9099 106.366 37.8199 106.3C37.2026 105.691 36.4722 105.209 35.6699 104.88C35.3275 104.699 34.9323 104.644 34.5536 104.725C34.1748 104.806 33.8366 105.018 33.5981 105.323C33.3597 105.628 33.2362 106.007 33.2493 106.394C33.2624 106.781 33.4113 107.152 33.6699 107.44C33.7852 107.633 33.9192 107.814 34.0699 107.98C34.7134 108.289 35.2727 108.748 35.6999 109.32C35.7709 109.402 35.81 109.507 35.81 109.615C35.81 109.723 35.7709 109.828 35.6999 109.91C35.6228 109.989 35.5204 110.038 35.4107 110.049C35.3011 110.06 35.191 110.032 35.0999 109.97C34.5465 109.601 34.0277 109.183 33.5499 108.72C32.9378 108.425 32.2562 108.304 31.5799 108.37V108.37Z" fill="#231F20"/>
<path d="M200.37 28.64C199.84 28.3 199.45 28.06 199.44 28.03C198.44 22.54 193.39 19.67 188.21 19.54C182 19.37 176 20.31 170.46 17C168.2 15.64 165.78 14.16 163.15 14.34C160.15 14.55 157.68 16.97 156.51 19.74C153.34 27.24 157.34 37.45 163.02 42.74C165.401 44.8233 167.964 46.6875 170.68 48.31L176.34 51.92C182.12 55.62 190.18 59.12 197.18 56.54C202.54 54.54 205.03 48.26 205.63 43.02C205.996 40.0902 205.744 37.1163 204.89 34.29C204.541 33.0015 203.984 31.7787 203.24 30.67C202.344 29.9117 201.383 29.2325 200.37 28.64V28.64Z" fill="white"/>
<path d="M192 57.89C186.23 57.89 180.39 55.06 176.08 52.31L170.42 48.69C167.679 47.0504 165.091 45.1661 162.69 43.06C156.96 37.74 152.8 27.22 156.06 19.51C157.44 16.25 160.21 14.02 163.13 13.81C165.85 13.63 168.37 15.13 170.59 16.46L170.73 16.54C175.04 19.13 179.6 19.08 184.42 19.03C185.66 19.03 186.94 19.03 188.23 19.03C193.23 19.16 198.78 21.9 199.91 27.74L200.57 28.16L200.38 28.63L200.64 28.2C201.718 28.7896 202.724 29.5009 203.64 30.32C204.42 31.4728 205.005 32.7466 205.37 34.09C206.247 36.9803 206.506 40.023 206.13 43.02C205.5 48.42 202.87 54.92 197.36 56.96C195.642 57.5823 193.827 57.8971 192 57.89V57.89ZM163.6 14.79H163.19C160.65 14.97 158.19 16.97 156.97 19.88C153.88 27.19 157.88 37.21 163.36 42.31C165.734 44.3831 168.291 46.2373 171 47.85L176.66 51.46C182.08 55 190.06 58.59 197 56C202.09 54.12 204.53 48 205.12 42.89C205.485 40.031 205.239 37.1272 204.4 34.37C204.07 33.14 203.543 31.9716 202.84 30.91C201.968 30.2206 201.049 29.5924 200.09 29.03V29.03L200.36 28.61L200 29C199 28.35 199 28.35 198.92 28.1C197.97 22.69 192.84 20.1 188.16 20.02C186.89 20.02 185.62 20.02 184.39 20.02C179.39 20.02 174.73 20.12 170.18 17.39L170.04 17.31C168 16.08 165.87 14.79 163.6 14.79Z" fill="#231F20"/>
<path d="M219.81 125L239.4 116.24C238.69 114.89 227.27 88.38 216.8 81.72C207.8 74.24 189.75 73.5 169.3 72.72C169.3 72.72 159.93 73.55 149.85 74.62C138.85 75.78 128.41 86.34 128.41 86.34L131.86 128.09C131.86 128.09 129.99 161.89 126.72 204.48H221.89C221.89 204.48 219.26 131.09 219.81 125Z" fill="#8870E5"/>
<path d="M164.71 85.59L171.12 158.78L191.17 83.37L164.71 85.59Z" fill="white"/>
<path d="M191.76 119.13C194.173 119.13 196.13 117.173 196.13 114.76C196.13 112.346 194.173 110.39 191.76 110.39C189.346 110.39 187.39 112.346 187.39 114.76C187.39 117.173 189.346 119.13 191.76 119.13Z" fill="#231F20"/>
<path d="M191.76 119.57C190.806 119.572 189.872 119.291 189.078 118.762C188.284 118.233 187.665 117.48 187.299 116.599C186.933 115.718 186.836 114.748 187.022 113.812C187.208 112.876 187.667 112.016 188.342 111.342C189.016 110.667 189.876 110.208 190.812 110.022C191.748 109.836 192.718 109.933 193.599 110.299C194.48 110.665 195.233 111.284 195.762 112.078C196.291 112.873 196.572 113.806 196.57 114.76C196.567 116.035 196.06 117.257 195.158 118.158C194.257 119.06 193.035 119.567 191.76 119.57V119.57ZM191.76 110.82C190.98 110.818 190.217 111.047 189.568 111.479C188.919 111.911 188.412 112.526 188.113 113.245C187.813 113.965 187.734 114.758 187.884 115.522C188.035 116.287 188.41 116.99 188.96 117.542C189.511 118.094 190.213 118.471 190.978 118.624C191.742 118.776 192.535 118.699 193.255 118.401C193.976 118.103 194.592 117.598 195.025 116.95C195.459 116.302 195.69 115.54 195.69 114.76C195.687 113.718 195.273 112.718 194.537 111.98C193.8 111.242 192.802 110.825 191.76 110.82V110.82Z" fill="#231F20"/>
<path d="M193.74 116.95C195.662 116.95 197.22 115.392 197.22 113.47C197.22 111.548 195.662 109.99 193.74 109.99C191.818 109.99 190.26 111.548 190.26 113.47C190.26 115.392 191.818 116.95 193.74 116.95Z" fill="#231F20"/>
<path d="M193.74 117.39C192.965 117.39 192.207 117.16 191.562 116.729C190.917 116.299 190.415 115.686 190.118 114.97C189.822 114.254 189.744 113.466 189.895 112.705C190.046 111.945 190.42 111.246 190.968 110.698C191.516 110.15 192.215 109.777 192.975 109.625C193.735 109.474 194.524 109.552 195.24 109.848C195.956 110.145 196.568 110.648 196.999 111.292C197.43 111.937 197.66 112.695 197.66 113.47C197.657 114.509 197.243 115.504 196.509 116.239C195.774 116.973 194.779 117.387 193.74 117.39V117.39ZM193.74 110.39C193.146 110.39 192.566 110.566 192.073 110.896C191.58 111.225 191.195 111.694 190.968 112.242C190.741 112.79 190.682 113.393 190.797 113.975C190.913 114.557 191.199 115.092 191.619 115.511C192.038 115.931 192.573 116.217 193.155 116.332C193.736 116.448 194.34 116.389 194.888 116.162C195.436 115.935 195.905 115.55 196.234 115.057C196.564 114.563 196.74 113.983 196.74 113.39C196.729 112.601 196.409 111.848 195.847 111.294C195.286 110.74 194.529 110.43 193.74 110.43V110.39Z" fill="#231F20"/>
<path d="M158.46 102.48H158.41C158.292 102.47 158.183 102.414 158.107 102.324C158.03 102.234 157.992 102.118 158 102C158.11 100.94 160.87 76.06 172.4 73.71C172.457 73.6988 172.516 73.699 172.573 73.7106C172.63 73.7221 172.684 73.7448 172.732 73.7773C172.781 73.8098 172.822 73.8515 172.854 73.9C172.886 73.9485 172.909 74.0029 172.92 74.06C172.931 74.1171 172.931 74.1759 172.919 74.2329C172.908 74.29 172.885 74.3442 172.853 74.3925C172.82 74.4408 172.778 74.4822 172.73 74.5143C172.681 74.5465 172.627 74.5688 172.57 74.58C161.68 76.79 158.9 101.84 158.88 102.09C158.866 102.194 158.817 102.289 158.74 102.36C158.663 102.432 158.564 102.474 158.46 102.48Z" fill="#231F20"/>
<path d="M192.59 113H192.54C192.474 112.993 192.41 112.972 192.352 112.94C192.295 112.908 192.244 112.864 192.203 112.812C192.162 112.76 192.132 112.7 192.114 112.636C192.096 112.572 192.092 112.506 192.1 112.44C195.04 86.36 191.33 76.14 191.29 76.04C191.258 75.9773 191.239 75.9086 191.236 75.8383C191.232 75.768 191.243 75.6977 191.269 75.632C191.294 75.5664 191.333 75.5068 191.383 75.4573C191.433 75.4077 191.493 75.3693 191.559 75.3445C191.625 75.3197 191.695 75.3091 191.766 75.3134C191.836 75.3177 191.904 75.3368 191.967 75.3694C192.029 75.402 192.084 75.4474 192.128 75.5027C192.171 75.5579 192.203 75.6217 192.22 75.69C192.38 76.1 196.07 86.17 193.09 112.55C193.077 112.674 193.019 112.788 192.927 112.872C192.834 112.955 192.714 113.001 192.59 113Z" fill="#231F20"/>
<path d="M165.83 131C165.697 131 165.57 130.947 165.476 130.854C165.383 130.76 165.33 130.633 165.33 130.5C165.33 130.367 165.383 130.24 165.476 130.146C165.57 130.053 165.697 130 165.83 130C166.567 129.997 167.272 129.704 167.793 129.183C168.314 128.662 168.607 127.956 168.61 127.22V111.86C168.607 109.389 167.625 107.02 165.877 105.273C164.13 103.525 161.761 102.543 159.29 102.54H157.62C155.149 102.543 152.78 103.525 151.033 105.273C149.285 107.02 148.303 109.389 148.3 111.86V127.21C148.303 127.946 148.596 128.652 149.117 129.173C149.638 129.694 150.344 129.987 151.08 129.99C151.213 129.99 151.34 130.043 151.434 130.136C151.527 130.23 151.58 130.357 151.58 130.49C151.58 130.623 151.527 130.75 151.434 130.844C151.34 130.937 151.213 130.99 151.08 130.99C150.078 130.99 149.116 130.592 148.407 129.883C147.698 129.174 147.3 128.213 147.3 127.21V111.86C147.303 109.124 148.391 106.5 150.326 104.566C152.26 102.631 154.884 101.543 157.62 101.54H159.29C162.026 101.543 164.65 102.631 166.584 104.566C168.519 106.5 169.607 109.124 169.61 111.86V127.21C169.611 127.707 169.515 128.2 169.325 128.66C169.136 129.119 168.858 129.537 168.506 129.889C168.155 130.241 167.738 130.521 167.279 130.711C166.82 130.902 166.327 131 165.83 131Z" fill="#231F20"/>
<path d="M153 128.94C153 128.476 152.624 128.1 152.16 128.1C151.696 128.1 151.32 128.476 151.32 128.94V132.15C151.32 132.614 151.696 132.99 152.16 132.99C152.624 132.99 153 132.614 153 132.15V128.94Z" fill="#231F20"/>
<path d="M152.16 133.43C151.821 133.427 151.497 133.292 151.258 133.052C151.018 132.813 150.882 132.489 150.88 132.15V128.94C150.88 128.601 151.015 128.275 151.255 128.035C151.495 127.795 151.82 127.66 152.16 127.66C152.499 127.66 152.825 127.795 153.065 128.035C153.305 128.275 153.44 128.601 153.44 128.94V132.15C153.44 132.489 153.305 132.815 153.065 133.055C152.825 133.295 152.499 133.43 152.16 133.43ZM152.16 128.54C152.107 128.54 152.055 128.55 152.007 128.57C151.958 128.591 151.914 128.62 151.877 128.657C151.84 128.694 151.81 128.738 151.79 128.787C151.77 128.835 151.76 128.887 151.76 128.94V132.15C151.76 132.256 151.802 132.358 151.877 132.433C151.952 132.508 152.054 132.55 152.16 132.55C152.266 132.55 152.368 132.508 152.443 132.433C152.518 132.358 152.56 132.256 152.56 132.15V128.94C152.56 128.887 152.55 128.835 152.529 128.787C152.509 128.738 152.48 128.694 152.443 128.657C152.406 128.62 152.361 128.591 152.313 128.57C152.264 128.55 152.212 128.54 152.16 128.54V128.54Z" fill="#231F20"/>
<path d="M166.32 128.94C166.32 128.476 165.944 128.1 165.48 128.1C165.016 128.1 164.64 128.476 164.64 128.94V132.15C164.64 132.614 165.016 132.99 165.48 132.99C165.944 132.99 166.32 132.614 166.32 132.15V128.94Z" fill="#231F20"/>
<path d="M165.48 133.43C165.14 133.43 164.815 133.295 164.575 133.055C164.335 132.815 164.2 132.489 164.2 132.15V128.94C164.2 128.601 164.335 128.275 164.575 128.035C164.815 127.795 165.14 127.66 165.48 127.66C165.819 127.66 166.145 127.795 166.385 128.035C166.625 128.275 166.76 128.601 166.76 128.94V132.15C166.76 132.489 166.625 132.815 166.385 133.055C166.145 133.295 165.819 133.43 165.48 133.43V133.43ZM165.48 128.54C165.427 128.54 165.375 128.55 165.327 128.57C165.278 128.591 165.234 128.62 165.197 128.657C165.16 128.694 165.13 128.738 165.11 128.787C165.09 128.835 165.08 128.887 165.08 128.94V132.15C165.08 132.256 165.122 132.358 165.197 132.433C165.272 132.508 165.374 132.55 165.48 132.55C165.586 132.55 165.688 132.508 165.763 132.433C165.838 132.358 165.88 132.256 165.88 132.15V128.94C165.88 128.887 165.87 128.835 165.85 128.787C165.829 128.738 165.8 128.694 165.763 128.657C165.726 128.62 165.682 128.591 165.633 128.57C165.584 128.55 165.532 128.54 165.48 128.54V128.54Z" fill="#231F20"/>
<path d="M193.74 117.45H193.67C191.81 117.18 190.6 116.45 190.06 115.32C189.17 113.45 190.5 111.21 190.56 111.12C190.592 111.063 190.635 111.012 190.687 110.972C190.74 110.932 190.799 110.903 190.863 110.888C190.927 110.872 190.993 110.869 191.058 110.88C191.123 110.89 191.185 110.914 191.24 110.95C191.352 111.018 191.432 111.128 191.464 111.255C191.496 111.382 191.476 111.517 191.41 111.63C191.41 111.63 190.3 113.51 190.96 114.9C191.35 115.72 192.31 116.25 193.81 116.47C193.943 116.479 194.066 116.541 194.153 116.641C194.24 116.741 194.284 116.872 194.275 117.005C194.266 117.138 194.204 117.261 194.104 117.348C194.003 117.435 193.873 117.479 193.74 117.47V117.45Z" fill="white"/>
<path d="M166.07 69.08L164.71 85.59C164.71 85.59 166.21 94.8 176.47 93.3C179.505 92.829 182.397 91.687 184.935 89.957C187.472 88.2271 189.592 85.9529 191.14 83.3L193.65 55C193.65 55 186.58 50.34 190.27 34.38C181.728 37.1493 172.598 37.5639 163.84 35.58C163.84 35.58 157.66 52.69 158.15 60.58C158.219 62.7151 159.059 64.753 160.515 66.316C161.971 67.8789 163.945 68.8609 166.07 69.08V69.08Z" fill="white"/>
<path d="M174.31 94C165.68 94 164.24 85.79 164.22 85.7C164.21 85.6606 164.21 85.6194 164.22 85.58L165.53 69.58C163.38 69.2588 161.412 68.1908 159.971 66.5633C158.53 64.9359 157.708 62.8529 157.65 60.68C157.16 52.78 163.12 36.19 163.37 35.48C163.413 35.3669 163.495 35.2732 163.602 35.2162C163.708 35.1592 163.832 35.1428 163.95 35.17C172.614 37.1096 181.638 36.6987 190.09 33.98C190.174 33.949 190.266 33.9413 190.354 33.9578C190.443 33.9743 190.525 34.0144 190.592 34.0738C190.66 34.1331 190.71 34.2096 190.738 34.2952C190.766 34.3808 190.77 34.4723 190.75 34.56C187.2 49.93 193.86 54.56 193.93 54.65C194.005 54.7015 194.066 54.7723 194.104 54.8549C194.143 54.9376 194.159 55.0291 194.15 55.12L191.64 83.45C191.631 83.5162 191.61 83.5805 191.58 83.64C190.006 86.3607 187.84 88.6932 185.244 90.4655C182.648 92.2377 179.687 93.4046 176.58 93.88C175.827 93.9722 175.068 94.0123 174.31 94V94ZM165.22 85.59C165.37 86.41 167.06 94.19 176.4 92.84C179.334 92.3725 182.13 91.2681 184.592 89.6044C187.054 87.9407 189.122 85.7581 190.65 83.21L193.13 55.21C191.88 54.21 186.62 49.06 189.59 35.12C181.33 37.5528 172.595 37.8965 164.17 36.12C163.24 38.77 158.22 53.48 158.65 60.5C158.7 62.5151 159.486 64.4421 160.861 65.9164C162.236 67.3906 164.103 68.3098 166.11 68.5C166.175 68.505 166.239 68.523 166.297 68.5531C166.356 68.5831 166.407 68.6245 166.449 68.6749C166.491 68.7252 166.522 68.7835 166.542 68.8462C166.561 68.9089 166.567 68.9748 166.56 69.04L165.22 85.59Z" fill="#231F20"/>
<path d="M165.23 79.28C168.909 78.2398 172.347 76.4865 175.35 74.12C180.17 70.27 180.02 67.76 180.02 67.76C180.02 67.76 172.52 71.01 166.02 69.08L165.23 79.28Z" fill="#231F20"/>
<path d="M165.23 79.77C165.112 79.7716 164.998 79.7287 164.91 79.65C164.849 79.5988 164.801 79.5342 164.77 79.4613C164.739 79.3884 164.725 79.3092 164.73 79.23L165.57 69.04C165.574 68.9653 165.597 68.8927 165.635 68.8283C165.673 68.764 165.726 68.7097 165.79 68.67C165.85 68.6268 165.919 68.598 165.992 68.5859C166.065 68.5737 166.139 68.5786 166.21 68.6C172.42 70.46 179.75 67.34 179.82 67.31C179.89 67.2706 179.969 67.2499 180.05 67.2499C180.13 67.2499 180.21 67.2706 180.28 67.31C180.349 67.3505 180.406 67.4073 180.448 67.4752C180.49 67.5432 180.515 67.6204 180.52 67.7C180.52 67.82 180.63 70.51 175.67 74.48C172.609 76.8916 169.102 78.6757 165.35 79.73L165.23 79.77ZM166.51 69.77L165.79 78.65C169.139 77.5963 172.272 75.9502 175.04 73.79C178.04 71.41 179.04 69.58 179.35 68.61C177.25 69.33 171.69 71 166.51 69.72V69.77Z" fill="#231F20"/>
<path d="M128.41 86.37L105.13 135.21L79.5999 120.36L62.4099 138.63C62.4099 138.63 93.8999 179.94 110.76 171.2C127.62 162.46 141.54 133 141.54 133L128.41 86.37Z" fill="#8870E5"/>
<path d="M128.11 186.38C128.044 186.377 127.98 186.362 127.92 186.334C127.86 186.307 127.807 186.268 127.762 186.22C127.718 186.171 127.683 186.115 127.66 186.053C127.638 185.991 127.627 185.926 127.63 185.86C128.82 157.32 135 101.49 135.07 100.93C135.075 100.864 135.093 100.8 135.124 100.741C135.155 100.683 135.197 100.631 135.249 100.59C135.301 100.549 135.36 100.518 135.424 100.501C135.488 100.484 135.555 100.48 135.62 100.49C135.751 100.505 135.871 100.571 135.953 100.674C136.036 100.777 136.074 100.909 136.06 101.04C135.99 101.6 129.81 157.39 128.62 185.91C128.617 185.974 128.602 186.038 128.575 186.096C128.548 186.155 128.51 186.207 128.462 186.251C128.415 186.294 128.36 186.328 128.299 186.35C128.239 186.373 128.174 186.383 128.11 186.38Z" fill="#231F20"/>
<path d="M178.04 147.55L196.69 210.33L144.48 210.18L126.33 148.81L178.04 147.55Z" fill="white"/>
<path d="M196.69 210.79L144.48 210.63C144.382 210.632 144.286 210.602 144.206 210.544C144.127 210.486 144.068 210.404 144.04 210.31L125.9 148.94C125.877 148.873 125.871 148.802 125.881 148.733C125.892 148.663 125.919 148.597 125.96 148.54C126.003 148.485 126.058 148.441 126.12 148.41C126.182 148.378 126.25 148.361 126.32 148.36L178 147.09C178.099 147.09 178.195 147.123 178.275 147.182C178.354 147.241 178.412 147.325 178.44 147.42L197.09 210.2C197.108 210.268 197.111 210.34 197.097 210.409C197.084 210.479 197.055 210.544 197.012 210.601C196.97 210.658 196.916 210.704 196.853 210.737C196.79 210.77 196.721 210.788 196.65 210.79H196.69ZM144.82 209.72L196.08 209.87L177.7 148L126.94 149.24L144.82 209.72Z" fill="#231F20"/>
<path d="M219.81 181.13C212.95 181.98 205.29 180.76 198.81 182.94C192.02 185.21 184.56 187.11 177.5 184.94C174.18 183.94 168.61 170.76 173.96 169.94C177.49 169.38 184.52 169.2 184.52 169.2L182.45 161.27C182.45 161.27 186.98 165.79 192.1 165.94C197.22 166.09 214.48 165.39 214.48 165.39" fill="white"/>
<path d="M184.18 186.35C181.859 186.364 179.55 186.027 177.33 185.35C174.59 184.49 170.96 176.95 171.27 172.74C171.44 170.31 172.77 169.6 173.86 169.43C176.86 168.96 182.15 168.76 183.86 168.7L182 161.33C181.976 161.233 181.985 161.13 182.024 161.038C182.064 160.946 182.133 160.869 182.22 160.82C182.306 160.767 182.407 160.745 182.507 160.757C182.608 160.77 182.7 160.817 182.77 160.89C182.77 160.89 187.23 165.28 192.1 165.42C197.1 165.57 214.28 164.88 214.45 164.88C214.511 164.873 214.572 164.879 214.63 164.897C214.688 164.916 214.742 164.946 214.787 164.987C214.832 165.027 214.869 165.077 214.893 165.133C214.918 165.189 214.93 165.249 214.93 165.31C214.933 165.37 214.923 165.431 214.903 165.488C214.882 165.544 214.85 165.597 214.81 165.641C214.769 165.686 214.719 165.722 214.665 165.747C214.61 165.773 214.55 165.787 214.49 165.79C214.32 165.79 197.15 166.48 192.07 166.33C188.34 166.23 184.96 163.92 183.26 162.55L184.95 169.03C184.968 169.096 184.971 169.165 184.959 169.233C184.947 169.3 184.92 169.364 184.88 169.42C184.836 169.473 184.781 169.517 184.719 169.548C184.657 169.579 184.589 169.597 184.52 169.6C184.45 169.6 177.52 169.79 174.02 170.33C172.9 170.51 172.31 171.33 172.2 172.81C171.91 176.81 175.46 183.81 177.63 184.47C184.51 186.62 191.8 184.8 198.63 182.47C202.75 181.09 207.34 181.05 211.78 181C214.452 181.029 217.123 180.906 219.78 180.63C219.899 180.621 220.016 180.657 220.109 180.732C220.201 180.806 220.263 180.912 220.28 181.03C220.288 181.089 220.285 181.149 220.27 181.207C220.255 181.265 220.228 181.319 220.192 181.367C220.156 181.414 220.11 181.454 220.058 181.484C220.007 181.514 219.949 181.533 219.89 181.54C217.206 181.813 214.508 181.939 211.81 181.92C207.44 181.92 202.92 182 198.94 183.33C194.14 185 189.14 186.35 184.18 186.35Z" fill="#231F20"/>
<path d="M141.54 146.45L144.97 154.59L167.11 153.75L164.03 145.75L141.54 146.45Z" fill="#231F20"/>
<path d="M145 155C144.913 155 144.828 154.974 144.755 154.926C144.682 154.878 144.625 154.81 144.59 154.73L141.16 146.59C141.132 146.524 141.121 146.451 141.128 146.38C141.134 146.308 141.158 146.239 141.198 146.179C141.237 146.118 141.291 146.069 141.354 146.034C141.417 146 141.488 145.981 141.56 145.98L164.05 145.28C164.142 145.276 164.233 145.301 164.31 145.351C164.387 145.401 164.447 145.474 164.48 145.56L167.55 153.56C167.582 153.622 167.598 153.69 167.598 153.76C167.598 153.83 167.582 153.898 167.55 153.96C167.511 154.018 167.459 154.066 167.398 154.1C167.337 154.135 167.27 154.155 167.2 154.16L145 155ZM142.23 146.84L145.28 154.11L166.51 153.3L163.77 146.17L142.23 146.84Z" fill="#231F20"/>
<path d="M153.58 142.24C152.739 141.907 151.807 141.882 150.95 142.17C150.348 142.41 149.819 142.802 149.416 143.309C149.012 143.816 148.748 144.42 148.65 145.06C148.58 145.812 148.704 146.569 149.01 147.26C149.254 147.972 149.657 148.618 150.19 149.15C152.03 150.82 156.54 150.64 156.84 147.03C156.869 146.084 156.641 145.147 156.18 144.32C155.908 143.817 155.538 143.373 155.091 143.016C154.644 142.659 154.13 142.395 153.58 142.24Z" fill="#231F20"/>
<path d="M153.13 150.61C151.948 150.634 150.796 150.229 149.89 149.47C149.305 148.895 148.861 148.194 148.59 147.42C148.263 146.661 148.133 145.832 148.21 145.01C148.315 144.287 148.61 143.606 149.065 143.034C149.52 142.463 150.119 142.024 150.8 141.76C151.757 141.434 152.799 141.458 153.74 141.83C154.341 142.004 154.902 142.296 155.39 142.689C155.878 143.083 156.282 143.569 156.58 144.12C157.073 145.019 157.314 146.035 157.28 147.06C157.246 147.768 157.006 148.45 156.588 149.023C156.17 149.595 155.594 150.032 154.93 150.28C154.355 150.5 153.745 150.612 153.13 150.61V150.61ZM152.13 142.41C151.789 142.412 151.452 142.469 151.13 142.58C150.605 142.794 150.145 143.14 149.794 143.586C149.443 144.031 149.215 144.56 149.13 145.12C149.064 145.804 149.177 146.493 149.46 147.12C149.611 147.64 149.873 148.121 150.228 148.53C150.582 148.939 151.021 149.267 151.513 149.491C152.006 149.715 152.541 149.83 153.083 149.828C153.624 149.826 154.159 149.707 154.65 149.48C155.155 149.287 155.591 148.949 155.903 148.507C156.215 148.065 156.388 147.54 156.4 147C156.421 146.133 156.206 145.276 155.78 144.52C155.536 144.067 155.202 143.668 154.798 143.35C154.393 143.032 153.928 142.8 153.43 142.67V142.67C153.012 142.507 152.568 142.419 152.12 142.41H152.13Z" fill="#231F20"/>
<path d="M33.8499 72.81L36.6399 114.17C36.8399 117.07 44.9699 118.89 54.8099 118.22C64.6499 117.55 72.4599 114.67 72.2699 111.77L69.4799 70.41L33.8499 72.81Z" fill="white"/>
<path d="M68.5499 71.47L71.2699 111.83C71.2699 112.55 69.9999 113.77 66.9499 114.9C63.0053 116.23 58.8971 117.014 54.7399 117.23C53.4199 117.32 52.0999 117.36 50.8199 117.36C42.3599 117.36 37.7299 115.47 37.6399 114.1L34.9199 73.74L68.5499 71.47M69.4799 70.41L33.8499 72.81L36.6399 114.17C36.8099 116.67 42.8599 118.36 50.8199 118.36C52.0999 118.36 53.4399 118.36 54.8199 118.22C64.6599 117.56 72.4699 114.67 72.2799 111.77L69.4899 70.41H69.4799Z" fill="#231F20"/>
<path d="M52.0138 76.8811C61.8498 76.2192 69.665 73.3285 69.4696 70.4245C69.2742 67.5205 61.1421 65.703 51.3061 66.3649C41.47 67.0268 33.6548 69.9176 33.8502 72.8216C34.0456 75.7255 42.1777 77.5431 52.0138 76.8811Z" fill="#231F20"/>
<path d="M55.3001 67.21C63.7601 67.21 68.4001 69.1 68.4901 70.47C68.5801 71.84 63.0001 75.13 51.9601 75.87C50.6301 75.96 49.3101 76 48.0301 76C39.5701 76 34.9401 74.11 34.8501 72.74C34.8501 72.02 36.1201 70.8 39.1701 69.67C43.1149 68.3405 47.2229 67.5566 51.3801 67.34C52.7001 67.25 54.0201 67.21 55.3001 67.21M55.3001 66.21C54.0201 66.21 52.6801 66.26 51.3001 66.35C41.4701 67.01 33.6501 69.9 33.8401 72.81C34.0001 75.31 40.0701 77 48.0001 77C49.2901 77 50.6201 77 52.0001 76.86C61.8401 76.2 69.6601 73.31 69.4601 70.41C69.2901 67.91 63.2401 66.21 55.2801 66.21H55.3001Z" fill="#231F20"/>
<path d="M70.15 80.38L71.65 102.53C71.84 105.43 64.02 108.33 54.19 108.99C44.36 109.65 36.19 107.83 36.02 104.93L34.53 82.78C34.72 85.68 42.86 87.5 52.7 86.84C62.54 86.18 70.35 83.28 70.15 80.38Z" fill="white"/>
<path d="M69.36 83.42L70.65 102.6C70.65 103.31 69.38 104.54 66.33 105.66C62.3858 106.993 58.2777 107.78 54.12 108C52.8 108.08 51.48 108.13 50.2 108.13C41.74 108.13 37.11 106.23 37.02 104.87L35.72 85.68C38.64 87.33 43.97 87.97 48.72 87.97C50.05 87.97 51.42 87.97 52.78 87.83C59.53 87.38 66.26 85.83 69.38 83.42M70.17 80.42C70.37 83.32 62.55 86.21 52.72 86.88C51.35 86.97 50.01 87.01 48.72 87.01C40.72 87.01 34.72 85.32 34.55 82.82L36 104.93C36.17 107.43 42.22 109.13 50.18 109.13C51.47 109.13 52.8 109.13 54.18 108.99C64.01 108.33 71.83 105.43 71.64 102.53L70.14 80.38L70.17 80.42Z" fill="#231F20"/>
<path d="M59.92 93.76L56.35 94L56.11 90.43C56.0869 90.0921 55.9308 89.7771 55.6759 89.554C55.4209 89.331 55.088 89.218 54.75 89.24L52.25 89.41C52.0826 89.4201 51.9189 89.4635 51.7685 89.5377C51.6181 89.6119 51.484 89.7153 51.3741 89.842C51.2642 89.9686 51.1807 90.116 51.1285 90.2753C51.0763 90.4347 51.0564 90.6029 51.07 90.77L51.31 94.34L47.74 94.58C47.5722 94.5901 47.4081 94.6335 47.2572 94.7076C47.1063 94.7816 46.9716 94.8849 46.8609 95.0114C46.7502 95.1379 46.6657 95.2851 46.6123 95.4445C46.559 95.6039 46.5378 95.7723 46.55 95.94L46.72 98.43C46.7288 98.5983 46.7713 98.763 46.8449 98.9146C46.9185 99.0662 47.0217 99.2014 47.1485 99.3124C47.2753 99.4233 47.4231 99.5077 47.5831 99.5605C47.7431 99.6134 47.9121 99.6336 48.08 99.62L51.65 99.38L51.89 102.95C51.9001 103.118 51.9435 103.282 52.0175 103.433C52.0916 103.584 52.1949 103.718 52.3214 103.829C52.4479 103.94 52.5951 104.024 52.7545 104.078C52.9139 104.131 53.0823 104.152 53.25 104.14L55.74 103.97C56.0779 103.947 56.3929 103.791 56.616 103.536C56.839 103.281 56.9519 102.948 56.93 102.61L56.69 99.04L60.26 98.8C60.5979 98.7769 60.9129 98.6208 61.136 98.3659C61.359 98.1109 61.4719 97.778 61.45 97.44L61.28 94.95C61.2569 94.6121 61.1008 94.2971 60.8459 94.074C60.5909 93.851 60.258 93.738 59.92 93.76V93.76Z" fill="#8870E5"/>
<path d="M61.79 103.08C61.6574 103.08 61.5303 103.027 61.4365 102.934C61.3427 102.84 61.29 102.713 61.29 102.58C61.29 102.447 61.3427 102.32 61.4365 102.226C61.5303 102.133 61.6574 102.08 61.79 102.08C64.0764 101.94 66.2925 101.236 68.24 100.03C68.2939 99.9919 68.3547 99.9648 68.419 99.9502C68.4833 99.9356 68.5499 99.9339 68.6149 99.945C68.6799 99.9562 68.7421 99.98 68.7979 100.015C68.8536 100.05 68.902 100.096 68.94 100.15C68.9781 100.204 69.0052 100.265 69.0198 100.329C69.0344 100.393 69.0362 100.46 69.025 100.525C69.0139 100.59 68.99 100.652 68.9549 100.708C68.9197 100.764 68.8739 100.812 68.82 100.85C66.7164 102.181 64.306 102.949 61.82 103.08H61.79Z" fill="#D1D3D4"/>
<path d="M158.53 52.93C157.51 52.9173 156.533 52.5215 155.792 51.8211C155.051 51.1208 154.6 50.1672 154.53 49.15L154.3 45.7C154.228 44.6388 154.575 43.5916 155.267 42.7838C155.959 41.9759 156.94 41.4718 158 41.38L165.56 40.87C166.633 40.804 167.688 41.164 168.497 41.8718C169.306 42.5795 169.803 43.5779 169.88 44.65L170.11 48.1C170.178 49.1724 169.819 50.2282 169.111 51.0361C168.402 51.844 167.402 52.3381 166.33 52.41L158.77 52.92L158.53 52.93ZM165.86 41.87H165.66L158.1 42.38C157.291 42.4339 156.537 42.8064 156.003 43.4157C155.469 44.0249 155.198 44.8213 155.25 45.63L155.48 49.08C155.536 49.8886 155.911 50.6418 156.522 51.1743C157.134 51.7067 157.931 51.9749 158.74 51.92L166.29 51.42C166.691 51.3933 167.083 51.2878 167.444 51.1095C167.804 50.9311 168.126 50.6835 168.391 50.3807C168.655 50.078 168.858 49.726 168.986 49.3449C169.115 48.9639 169.167 48.5612 169.14 48.16L168.91 44.72C168.857 43.9471 168.512 43.2231 167.946 42.6942C167.38 42.1652 166.635 41.8707 165.86 41.87V41.87Z" fill="#231F20"/>
<path d="M175.64 51.75C174.62 51.7373 173.643 51.3415 172.902 50.6411C172.161 49.9408 171.71 48.9872 171.64 47.97L171.41 44.52C171.341 43.4465 171.7 42.3896 172.409 41.5801C173.117 40.7706 174.117 40.2744 175.19 40.2L182.74 39.7C183.802 39.6475 184.842 40.0126 185.638 40.7171C186.434 41.4217 186.923 42.4097 187 43.47L187.23 46.92C187.301 47.9924 186.945 49.0494 186.238 49.8592C185.531 50.669 184.532 51.1656 183.46 51.24L175.9 51.74L175.64 51.75ZM183 40.69H182.79L175.23 41.19C174.83 41.2166 174.439 41.3219 174.08 41.4997C173.721 41.6775 173.4 41.9244 173.136 42.2263C172.872 42.5281 172.671 42.879 172.543 43.2588C172.415 43.6387 172.363 44.04 172.39 44.44L172.62 47.89C172.64 48.2922 172.741 48.6864 172.916 49.0488C173.092 49.4113 173.339 49.7347 173.642 49.9997C173.945 50.2648 174.299 50.466 174.682 50.5915C175.064 50.7169 175.469 50.764 175.87 50.73L183.43 50.23C184.229 50.1685 184.973 49.7955 185.5 49.1915C186.028 48.5874 186.297 47.8005 186.25 47L186 43.54C185.961 42.7706 185.628 42.0455 185.07 41.515C184.511 40.9844 183.77 40.689 183 40.69V40.69Z" fill="#231F20"/>
<path d="M169.49 46.4C169.357 46.4 169.23 46.3473 169.136 46.2535C169.043 46.1598 168.99 46.0326 168.99 45.9C168.99 45.7674 169.043 45.6402 169.136 45.5464C169.23 45.4527 169.357 45.4 169.49 45.4L171.49 45.26C171.623 45.2507 171.753 45.2945 171.854 45.3817C171.954 45.4689 172.016 45.5924 172.025 45.725C172.034 45.8576 171.99 45.9885 171.903 46.0888C171.816 46.1891 171.693 46.2507 171.56 46.26L169.56 46.4H169.49Z" fill="#231F20"/>
<path d="M33.06 55.58C32.795 55.8133 32.579 56.0969 32.4243 56.4143C32.2697 56.7317 32.1795 57.0766 32.159 57.4291C32.1386 57.7815 32.1882 58.1346 32.3051 58.4677C32.422 58.8009 32.6038 59.1076 32.84 59.37L41.59 69.24C42.0712 69.7349 42.7249 70.025 43.4147 70.0498C44.1046 70.0747 44.7774 69.8325 45.2931 69.3735C45.8087 68.9146 46.1274 68.2744 46.1827 67.5863C46.238 66.8983 46.0257 66.2154 45.59 65.68L36.83 55.81C36.3578 55.284 35.6976 54.9651 34.9922 54.922C34.2867 54.879 33.5926 55.1154 33.06 55.58V55.58Z" fill="white"/>
<path d="M34.84 54.91C35.2181 54.9098 35.5919 54.99 35.9367 55.1451C36.2815 55.3003 36.5894 55.5269 36.84 55.81L45.6 65.68C46.0357 66.2154 46.248 66.8983 46.1927 67.5863C46.1374 68.2744 45.8187 68.9146 45.3031 69.3735C44.7874 69.8325 44.1146 70.0747 43.4247 70.0498C42.7349 70.025 42.0812 69.7349 41.6 69.24L32.85 59.37C32.5026 58.9855 32.2746 58.5082 32.1937 57.9964C32.1129 57.4845 32.1828 56.9602 32.3948 56.4874C32.6068 56.0146 32.9519 55.6137 33.3878 55.3336C33.8238 55.0535 34.3318 54.9063 34.85 54.91M34.85 53.91C33.95 53.9094 33.0813 54.2405 32.41 54.84C32.0452 55.1571 31.7482 55.5447 31.5369 55.9795C31.3255 56.4142 31.2041 56.8872 31.18 57.37C31.1252 58.3323 31.4522 59.2773 32.09 60L40.84 69.86C41.1608 70.2222 41.5499 70.5175 41.985 70.7292C42.4201 70.9408 42.8927 71.0646 43.3757 71.0934C43.8587 71.1222 44.3426 71.0554 44.7998 70.897C45.257 70.7385 45.6784 70.4915 46.04 70.17C46.4045 69.8506 46.702 69.4621 46.9152 69.0269C47.1283 68.5917 47.2529 68.1185 47.2818 67.6348C47.3106 67.151 47.2431 66.6664 47.0831 66.2089C46.9232 65.7515 46.674 65.3303 46.35 64.97L37.6 55.15C37.2541 54.7595 36.8292 54.447 36.3533 54.2332C35.8775 54.0194 35.3616 53.9092 34.84 53.91H34.85Z" fill="#231F20"/>
<path d="M41.23 60.74C41.23 60.74 41.23 61.74 39.75 63.03C39.08 63.7418 38.1807 64.195 37.21 64.31L41.59 69.24C42.0712 69.7349 42.7248 70.025 43.4147 70.0499C44.1045 70.0747 44.7774 69.8325 45.293 69.3736C45.8087 68.9146 46.1274 68.2744 46.1827 67.5864C46.238 66.8983 46.0257 66.2154 45.59 65.68L41.23 60.74Z" fill="#8870E5"/>
<path d="M61.64 30.82C61.3158 30.6816 60.9673 30.6085 60.6147 30.605C60.2622 30.6015 59.9123 30.6676 59.5853 30.7995C59.2583 30.9314 58.9606 31.1265 58.7092 31.3737C58.4577 31.6209 58.2575 31.9153 58.1201 32.24L53 44.38C52.8616 44.7043 52.7886 45.0527 52.785 45.4053C52.7815 45.7579 52.8476 46.1077 52.9795 46.4347C53.1114 46.7617 53.3066 47.0594 53.5538 47.3109C53.801 47.5623 54.0953 47.7625 54.42 47.9C54.7446 48.0361 55.0931 48.1063 55.445 48.1063C55.797 48.1063 56.1455 48.0361 56.4701 47.9C57.1315 47.6338 57.6603 47.1159 57.9401 46.46L63.1 34.32C63.3683 33.662 63.3653 32.9247 63.0917 32.269C62.8182 31.6132 62.2963 31.0923 61.64 30.82V30.82Z" fill="white"/>
<path d="M60.5899 30.6C60.9345 30.6063 61.2744 30.6811 61.5899 30.82C62.2439 31.0997 62.7605 31.6272 63.0266 32.2868C63.2927 32.9465 63.2867 33.6847 63.0099 34.34L57.8999 46.48C57.6201 47.1358 57.0914 47.6538 56.4299 47.92C56.1106 48.0426 55.7719 48.107 55.4299 48.11C55.0696 48.1089 54.7129 48.0376 54.3799 47.9C53.7313 47.6148 53.222 47.0844 52.9634 46.4248C52.7048 45.7652 52.7179 45.03 52.9999 44.38L58.1599 32.24C58.3656 31.7547 58.7094 31.3405 59.1486 31.049C59.5877 30.7574 60.1028 30.6013 60.6299 30.6M60.6299 29.6C59.9079 29.6019 59.2023 29.815 58.5999 30.213C57.9975 30.611 57.5248 31.1766 57.2399 31.84L51.9999 44C51.8134 44.4476 51.7172 44.9277 51.7168 45.4127C51.7164 45.8976 51.8119 46.3779 51.9978 46.8258C52.1836 47.2737 52.4562 47.6805 52.7998 48.0227C53.1434 48.365 53.5512 48.6359 53.9999 48.82C54.456 49.0109 54.9454 49.1095 55.4399 49.11C55.913 49.1103 56.3817 49.0186 56.8199 48.84C57.7251 48.4645 58.4444 47.7452 58.8199 46.84L63.9999 34.73C64.1866 34.2816 64.283 33.8008 64.2835 33.3151C64.2839 32.8295 64.1885 32.3485 64.0027 31.8997C63.8169 31.451 63.5444 31.0434 63.2007 30.7002C62.857 30.357 62.4489 30.0851 61.9999 29.9C61.5459 29.7011 61.0555 29.5989 60.5599 29.6H60.6299Z" fill="#231F20"/>
<path d="M60.4801 40.41C59.5672 40.6408 58.6005 40.5119 57.78 40.05C56.8501 39.755 56.0559 39.138 55.5401 38.31L53 44.38C52.8616 44.7043 52.7886 45.0527 52.785 45.4053C52.7815 45.7579 52.8476 46.1077 52.9795 46.4347C53.1114 46.7617 53.3066 47.0594 53.5538 47.3109C53.801 47.5623 54.0953 47.7625 54.42 47.9C54.7446 48.0361 55.0931 48.1063 55.445 48.1063C55.797 48.1063 56.1455 48.0361 56.4701 47.9C57.1315 47.6338 57.6603 47.1159 57.9401 46.46L60.4801 40.41Z" fill="#8870E5"/>
<path d="M52.33 27.87C52.0374 28.068 51.7087 28.2061 51.3626 28.2766C51.0164 28.3471 50.6598 28.3484 50.3132 28.2806C49.9665 28.2127 49.6367 28.077 49.3427 27.8813C49.0487 27.6856 48.7963 27.4336 48.6 27.14L41.24 16.14C40.9615 15.698 40.8178 15.1846 40.8263 14.6623C40.8348 14.14 40.9952 13.6315 41.2878 13.1988C41.5805 12.7662 41.9928 12.4281 42.4745 12.2259C42.9561 12.0236 43.4861 11.966 44 12.06C44.3448 12.1278 44.6726 12.2635 44.9645 12.4592C45.2563 12.6549 45.5063 12.9067 45.7 13.2L53.06 24.15C53.2577 24.4417 53.3957 24.7697 53.466 25.115C53.5363 25.4604 53.5376 25.8162 53.4697 26.162C53.4019 26.5079 53.2662 26.8368 53.0706 27.13C52.875 27.4231 52.6233 27.6746 52.33 27.87V27.87Z" fill="white"/>
<path d="M43.4699 12C43.6444 12.0017 43.8184 12.0185 43.9899 12.05C44.3373 12.1177 44.6676 12.2544 44.9613 12.4519C45.255 12.6495 45.5061 12.9038 45.6999 13.2L53.0599 24.15C53.3291 24.5545 53.4836 25.0243 53.5071 25.5096C53.5307 25.9949 53.4224 26.4775 53.1937 26.9062C52.965 27.3348 52.6245 27.6936 52.2083 27.9442C51.7921 28.1949 51.3158 28.3282 50.8299 28.33C50.6603 28.3447 50.4896 28.3447 50.3199 28.33C49.6187 28.1917 49.0005 27.7819 48.5999 27.19L41.2399 16.19C40.8488 15.5955 40.7092 14.8702 40.8516 14.173C40.9941 13.4758 41.407 12.8634 41.9999 12.47C42.4316 12.1693 42.9439 12.0055 43.4699 12M43.4699 11C42.8061 11.0088 42.1571 11.1971 41.5916 11.5448C41.0261 11.8925 40.5652 12.3867 40.2577 12.9751C39.9502 13.5634 39.8076 14.224 39.8449 14.8868C39.8823 15.5496 40.0983 16.1899 40.4699 16.74L47.8199 27.74C48.0898 28.1418 48.4363 28.4864 48.8395 28.7541C49.2428 29.0217 49.6949 29.2073 50.1699 29.3C50.4035 29.348 50.6415 29.3715 50.8799 29.37C51.5475 29.3685 52.2021 29.186 52.7741 28.8419C53.346 28.4977 53.814 28.0049 54.128 27.4159C54.442 26.8268 54.5904 26.1636 54.5572 25.4969C54.5241 24.8302 54.3108 24.185 53.9399 23.63L46.5799 12.63C46.3117 12.2267 45.9657 11.881 45.5622 11.6131C45.1587 11.3452 44.7057 11.1606 44.2299 11.07C43.9957 11.0264 43.7582 11.003 43.5199 11H43.4699Z" fill="#231F20"/>
<path d="M49.38 18.67C48.4409 18.6104 47.5156 18.9189 46.8 19.53C45.94 19.9985 45.2738 20.7567 44.92 21.67L41.24 16.19C40.9455 15.7477 40.7886 15.2282 40.7891 14.6968C40.7895 14.1655 40.9473 13.6462 41.2425 13.2044C41.5377 12.7627 41.9572 12.4182 42.4479 12.2145C42.9387 12.0109 43.4788 11.9571 44 12.06C44.3448 12.1278 44.6727 12.2635 44.9645 12.4592C45.2564 12.6549 45.5064 12.9068 45.7 13.2L49.38 18.67Z" fill="#8870E5"/>
<path d="M31.89 37.83L31.22 40.2C30.84 41.52 33.4 43.39 36.92 44.39C40.44 45.39 43.59 45.14 43.92 43.83L44.59 41.45L31.89 37.83Z" fill="white"/>
<path d="M31.89 37.83L44.64 41.45L44 43.83C43.78 44.6 42.6 45 41 45C39.6454 44.977 38.2999 44.7718 37 44.39C33.48 43.39 30.92 41.52 31.3 40.2L31.97 37.83M31.97 36.83C31.7456 36.8217 31.5249 36.8892 31.3435 37.0216C31.162 37.154 31.0305 37.3437 30.97 37.56L30.29 39.93C30.08 40.68 30.21 41.87 32.05 43.22C33.459 44.1916 35.0254 44.9123 36.68 45.35C38.0702 45.7614 39.5103 45.9801 40.96 46C43.96 46 44.77 44.81 44.96 44.1L45.63 41.73C45.702 41.4747 45.6696 41.2013 45.54 40.97C45.4766 40.8543 45.3909 40.7524 45.288 40.67C45.185 40.5877 45.0667 40.5265 44.94 40.49L32.16 36.87C32.0706 36.8554 31.9794 36.8554 31.89 36.87L31.97 36.83Z" fill="#231F20"/>
<path d="M44.6392 41.4595C45.012 40.1473 42.4589 38.2723 38.9366 37.2716C35.4144 36.2709 32.2568 36.5235 31.884 37.8357C31.5112 39.1479 34.0643 41.0229 37.5866 42.0236C41.1089 43.0243 44.2664 42.7717 44.6392 41.4595Z" fill="white"/>
<path d="M34.9401 36.66C36.2951 36.678 37.6412 36.8832 38.9401 37.27C42.4601 38.27 45.0101 40.14 44.6401 41.45C44.4201 42.22 43.2401 42.63 41.6401 42.63C40.2854 42.607 38.94 42.4018 37.6401 42.02C34.1201 41.02 31.5701 39.14 31.9401 37.83C32.1601 37.06 33.3401 36.66 34.9401 36.66ZM34.9401 35.66C31.9401 35.66 31.1301 36.85 30.9401 37.56C30.7501 38.27 30.8601 39.49 32.7001 40.85C34.108 41.8217 35.67 42.5486 37.3201 43C38.7078 43.4071 40.144 43.6257 41.5901 43.65C44.5901 43.65 45.4001 42.46 45.5901 41.75C45.7801 41.04 45.6701 39.81 43.8301 38.46C42.4222 37.4863 40.8554 36.7656 39.2001 36.33C37.8134 35.918 36.3765 35.6993 34.9301 35.68L34.9401 35.66Z" fill="#231F20"/>
<path d="M33.2099 41.05C33.0986 41.0506 32.9905 41.0132 32.9033 40.9442C32.816 40.8751 32.7549 40.7784 32.7299 40.67C32.7134 40.6063 32.7096 40.54 32.7187 40.4748C32.7279 40.4096 32.7498 40.3469 32.7833 40.2903C32.8167 40.2336 32.861 40.1841 32.9136 40.1446C32.9663 40.105 33.0262 40.0763 33.0899 40.06L41.9999 37.83C42.063 37.8136 42.1286 37.8099 42.1931 37.8192C42.2576 37.8284 42.3196 37.8505 42.3755 37.884C42.4314 37.9175 42.48 37.9619 42.5185 38.0144C42.5571 38.0669 42.5847 38.1266 42.5999 38.19C42.6164 38.2537 42.6202 38.32 42.6111 38.3852C42.6019 38.4503 42.58 38.5131 42.5465 38.5697C42.5131 38.6264 42.4688 38.6759 42.4162 38.7154C42.3636 38.7549 42.3037 38.7837 42.2399 38.8L33.3299 41L33.2099 41.05Z" fill="#231F20"/>
<path d="M66.5698 44L67.1498 41.6C67.4698 40.28 70.6198 39.9 74.1498 40.76C77.6798 41.62 80.3398 43.4 80.0098 44.76L79.4298 47.16L66.5698 44Z" fill="white"/>
<path d="M70.58 40.27C71.7904 40.2844 72.9951 40.4388 74.17 40.73C77.73 41.59 80.36 43.37 80.03 44.73L79.45 47.13L66.57 44L67.15 41.6C67.36 40.76 68.71 40.3 70.58 40.3M70.58 39.3C68.06 39.3 66.5 40.03 66.18 41.37L65.6 43.77C65.5399 44.0272 65.5839 44.2978 65.7226 44.5226C65.8612 44.7474 66.0832 44.9083 66.34 44.97L79.22 48.09H79.45C79.6372 48.0906 79.8209 48.0386 79.98 47.94C80.0921 47.8713 80.1895 47.7812 80.2667 47.6748C80.3439 47.5684 80.3994 47.4478 80.43 47.32L81.01 44.93C81.57 42.61 78.01 40.63 74.41 39.76C73.1566 39.449 71.8713 39.2846 70.58 39.27V39.3Z" fill="#231F20"/>
<path d="M79.465 47.0994C79.786 45.7736 77.1612 44.0003 73.6024 43.1387C70.0435 42.277 66.8983 42.6533 66.5773 43.9792C66.2563 45.305 68.8811 47.0783 72.4399 47.9399C75.9987 48.8016 79.144 48.4253 79.465 47.0994Z" fill="#231F20"/>
<path d="M70.0001 42.67C71.2138 42.6837 72.4219 42.8381 73.6001 43.13C77.1601 43.99 79.7801 45.76 79.4601 47.13C79.2601 47.97 77.91 48.43 76.04 48.43C74.8263 48.4156 73.6184 48.2613 72.4401 47.97C68.8901 47.11 66.2601 45.34 66.5801 43.97C66.7901 43.13 68.1301 42.67 70.0001 42.67M70.0001 41.67C67.4901 41.67 65.9301 42.4 65.6101 43.74C65.4301 44.5 65.6101 45.67 67.5001 46.95C68.94 47.8889 70.5345 48.566 72.2101 48.95C73.4633 49.2616 74.7487 49.426 76.04 49.44C78.55 49.44 80.1101 48.71 80.4401 47.37C80.6201 46.61 80.4401 45.44 78.5501 44.16C77.1062 43.2285 75.513 42.552 73.84 42.16C72.5834 41.8484 71.2947 41.6839 70.0001 41.67V41.67Z" fill="#231F20"/>
<path d="M75.7199 49.08C75.591 49.0824 75.466 49.036 75.3699 48.95L68.7199 42.62C68.6731 42.5735 68.6359 42.5182 68.6105 42.4573C68.5851 42.3963 68.572 42.331 68.572 42.265C68.572 42.199 68.5851 42.1336 68.6105 42.0727C68.6359 42.0118 68.6731 41.9565 68.7199 41.91C68.7655 41.8634 68.82 41.8264 68.8801 41.8012C68.9402 41.7759 69.0047 41.7629 69.0699 41.7629C69.1351 41.7629 69.1996 41.7759 69.2597 41.8012C69.3198 41.8264 69.3743 41.8634 69.4199 41.91L76.0799 48.24C76.1513 48.3087 76.2006 48.3971 76.2216 48.494C76.2426 48.5908 76.2344 48.6917 76.198 48.7839C76.1615 48.876 76.0986 48.9553 76.017 49.0115C75.9354 49.0678 75.839 49.0986 75.7399 49.1L75.7199 49.08Z" fill="#231F20"/>
<path d="M51.6799 70.39L52.8099 72.58C53.4399 73.8 56.5799 73.42 59.8099 71.75C63.0399 70.08 65.1899 67.75 64.5699 66.52L63.4399 64.33L51.6799 70.39Z" fill="white"/>
<path d="M63.4699 64.33L64.5999 66.52C65.2199 67.73 63.0899 70.07 59.8399 71.75C58.2256 72.6476 56.4328 73.1769 54.5899 73.3C53.6999 73.3 53.0599 73.06 52.8099 72.58L51.6799 70.39L63.4699 64.33ZM63.4699 63.33C63.31 63.3294 63.1522 63.3671 63.0099 63.44L51.2299 69.5C51.1115 69.5602 51.0064 69.6434 50.9205 69.7447C50.8347 69.846 50.7699 69.9634 50.7299 70.09C50.6518 70.3426 50.677 70.6159 50.7999 70.85L51.9199 73.04C52.1945 73.4866 52.5933 73.8435 53.0674 74.0673C53.5415 74.291 54.0705 74.3719 54.5899 74.3C56.5898 74.1781 58.5372 73.611 60.2899 72.64C61.8243 71.8823 63.2177 70.8677 64.4099 69.64C65.9499 67.95 65.8499 66.77 65.4899 66.07L64.3599 63.88C64.3008 63.7626 64.2192 63.6581 64.1196 63.5723C64.0201 63.4865 63.9047 63.4211 63.7799 63.38C63.6771 63.3654 63.5727 63.3654 63.4699 63.38V63.33Z" fill="#231F20"/>
<path d="M58.7071 69.5542C61.963 67.8788 64.0964 65.5373 63.4722 64.3243C62.848 63.1114 59.7026 63.4863 56.4468 65.1617C53.1909 66.8371 51.0575 69.1786 51.6817 70.3916C52.3059 71.6046 55.4513 71.2297 58.7071 69.5542Z" fill="white"/>
<path d="M61.6898 63.62C62.5798 63.62 63.2198 63.85 63.4698 64.33C64.0898 65.54 61.9598 67.88 58.7098 69.55C57.0956 70.4476 55.3027 70.9769 53.4598 71.1C52.5698 71.1 51.9298 70.87 51.6798 70.39C51.0598 69.18 53.1898 66.84 56.4498 65.16C58.061 64.2652 59.8507 63.7392 61.6898 63.62M61.6898 62.62C59.6907 62.7391 57.7434 63.3028 55.9898 64.27C52.7198 65.96 49.7098 68.73 50.7998 70.85C51.0898 71.42 51.7998 72.1 53.4598 72.1C55.4606 71.9829 57.409 71.4154 59.1598 70.44C62.4298 68.76 65.4498 65.99 64.3598 63.87C64.0698 63.3 63.3598 62.62 61.6898 62.62V62.62Z" fill="#231F20"/>
<path d="M54.5098 72C54.4105 72.0029 54.3126 71.975 54.2298 71.92C54.1202 71.8467 54.044 71.733 54.0178 71.6038C53.9916 71.4746 54.0175 71.3402 54.0898 71.23L59.0898 63.51C59.1616 63.3987 59.2745 63.3205 59.4038 63.2924C59.5332 63.2642 59.6684 63.2886 59.7798 63.36C59.8918 63.4336 59.9702 63.5483 59.9983 63.6792C60.0264 63.8102 60.0018 63.947 59.9298 64.06L54.9298 71.77C54.884 71.8398 54.8217 71.8972 54.7485 71.9373C54.6753 71.9774 54.5933 71.9989 54.5098 72Z" fill="#231F20"/>
<path d="M58.0499 4.99997L54.8799 13.67C53.9299 16.25 60.2699 20.95 69.0399 24.17C77.8099 27.39 85.6799 27.89 86.6299 25.3L89.7999 16.64L58.0499 4.99997Z" fill="white"/>
<path d="M58.6499 6.23998L88.5199 17.18L85.6899 24.9C85.5199 25.36 84.4699 25.9 82.0499 25.9C77.7065 25.6905 73.4266 24.7717 69.3799 23.18C65.6614 21.8845 62.1385 20.0843 58.9099 17.83C56.1099 15.75 55.6499 14.42 55.8199 13.96L58.6499 6.23998ZM58.0499 4.94998L54.8799 13.62C53.9299 16.2 60.2699 20.9 69.0399 24.12C73.1924 25.7501 77.5838 26.6892 82.0399 26.9C84.5299 26.9 86.2099 26.36 86.6199 25.25L89.7899 16.59L58.0499 4.99998V4.94998Z" fill="#231F20"/>
<path d="M89.8051 16.5881C90.7531 14.0004 84.4128 9.29837 75.6436 6.08582C66.8744 2.87328 58.997 2.36675 58.049 4.95447C57.101 7.54219 63.4414 12.2442 72.2106 15.4568C80.9798 18.6693 88.8571 19.1758 89.8051 16.5881Z" fill="white"/>
<path d="M62.6299 4.29997C66.9722 4.50306 71.252 5.41511 75.2999 6.99997C79.0166 8.29965 82.539 10.0995 85.7699 12.35C88.5699 14.43 89.0299 15.76 88.8599 16.22C88.6899 16.68 87.6399 17.22 85.2199 17.22C80.8766 17.0094 76.5969 16.0906 72.5499 14.5C68.8349 13.1962 65.3131 11.3966 62.0799 9.14997C59.2799 7.06997 58.8199 5.73997 58.9899 5.27997C59.1599 4.81997 60.2099 4.27997 62.6299 4.27997M62.6299 3.27997C60.1399 3.27997 58.4599 3.81997 58.0499 4.92997C57.0499 7.51997 63.4399 12.22 72.2099 15.44C76.3624 17.0701 80.7538 18.0092 85.2099 18.22C87.6999 18.22 89.3899 17.68 89.7899 16.57C90.7399 13.98 84.3999 9.27997 75.6299 6.05997C71.4773 4.42986 67.0859 3.49076 62.6299 3.27997V3.27997Z" fill="#231F20"/>
<path d="M58.3998 16.74C58.3436 16.7495 58.2861 16.7495 58.2298 16.74C58.1058 16.6968 58.0037 16.6065 57.9457 16.4886C57.8876 16.3707 57.8784 16.2347 57.9198 16.11L59.9198 10.34C59.965 10.2154 60.0577 10.1138 60.1777 10.0575C60.2978 10.0013 60.4352 9.99497 60.5598 10.04C60.622 10.0601 60.6794 10.0927 60.7285 10.1357C60.7777 10.1788 60.8175 10.2314 60.8456 10.2904C60.8737 10.3493 60.8894 10.4134 60.8919 10.4787C60.8943 10.544 60.8834 10.6091 60.8598 10.67L58.8598 16.44C58.8198 16.5287 58.7552 16.604 58.6737 16.6572C58.5922 16.7104 58.4972 16.7391 58.3998 16.74V16.74Z" fill="#D1D3D4"/>
<path d="M61.4599 19.13C61.4007 19.144 61.3391 19.144 61.2799 19.13C61.2183 19.1078 61.1618 19.0734 61.1136 19.029C61.0655 18.9846 61.0268 18.9309 60.9997 18.8713C60.9727 18.8116 60.9579 18.7471 60.9562 18.6816C60.9545 18.6161 60.966 18.551 60.9899 18.49L63.2399 12.66C63.2621 12.5984 63.2965 12.5418 63.3409 12.4937C63.3854 12.4456 63.439 12.4068 63.4987 12.3798C63.5583 12.3528 63.6228 12.338 63.6883 12.3363C63.7538 12.3346 63.8189 12.3461 63.8799 12.37C63.9419 12.3933 63.9987 12.4286 64.0469 12.474C64.0951 12.5194 64.1338 12.5739 64.1608 12.6344C64.1878 12.6948 64.2025 12.7601 64.2041 12.8263C64.2056 12.8925 64.194 12.9583 64.1699 13.02L61.9199 18.85C61.88 18.9373 61.8149 19.0107 61.7329 19.0606C61.6509 19.1105 61.5558 19.1347 61.4599 19.13V19.13Z" fill="#D1D3D4"/>
<path d="M65.29 21H65.11C65.0489 20.9757 64.9932 20.9397 64.946 20.8939C64.8989 20.8481 64.8612 20.7934 64.8352 20.733C64.8092 20.6727 64.7954 20.6078 64.7945 20.542C64.7936 20.4763 64.8057 20.411 64.83 20.35L67.07 14.52C67.09 14.4542 67.1234 14.3932 67.168 14.3409C67.2127 14.2885 67.2676 14.246 67.3295 14.2159C67.3913 14.1858 67.4587 14.1687 67.5274 14.1658C67.5962 14.163 67.6648 14.1743 67.7289 14.1991C67.793 14.224 67.8514 14.2618 67.9003 14.3102C67.9491 14.3586 67.9875 14.4165 68.0129 14.4804C68.0384 14.5443 68.0504 14.6128 68.0481 14.6816C68.0459 14.7503 68.0295 14.8179 68 14.88L65.76 20.71C65.7178 20.7983 65.651 20.8727 65.5677 20.9241C65.4843 20.9755 65.3879 21.0019 65.29 21V21Z" fill="#D1D3D4"/>
<path d="M69.1999 22.53C69.1402 22.5395 69.0795 22.5395 69.0199 22.53C68.8963 22.4808 68.7969 22.3854 68.7427 22.2639C68.6886 22.1425 68.684 22.0048 68.7299 21.88L70.9999 16C71.047 15.8772 71.1406 15.7779 71.2603 15.7236C71.3801 15.6693 71.5165 15.6644 71.6399 15.71C71.7019 15.7333 71.7586 15.7686 71.8068 15.814C71.8551 15.8594 71.8938 15.9139 71.9207 15.9744C71.9477 16.0348 71.9624 16.1001 71.964 16.1663C71.9656 16.2325 71.954 16.2983 71.9299 16.36L69.6899 22.19C69.6542 22.2909 69.5877 22.3781 69.4998 22.4391C69.4118 22.5001 69.3069 22.5319 69.1999 22.53V22.53Z" fill="#D1D3D4"/>
<path d="M73.4698 24C73.4102 24.0095 73.3495 24.0095 73.2898 24C73.2278 23.9767 73.1711 23.9413 73.1229 23.896C73.0747 23.8506 73.0359 23.7961 73.009 23.7356C72.982 23.6751 72.9673 23.6099 72.9657 23.5437C72.9642 23.4775 72.9757 23.4117 72.9998 23.35L75.2398 17.52C75.2635 17.4583 75.299 17.4018 75.3445 17.3538C75.39 17.3058 75.4444 17.2673 75.5048 17.2404C75.5651 17.2134 75.6302 17.1986 75.6963 17.1969C75.7623 17.1951 75.8281 17.2063 75.8898 17.23C75.9516 17.2536 76.008 17.2892 76.056 17.3346C76.104 17.3801 76.1425 17.4346 76.1695 17.4949C76.1964 17.5553 76.2112 17.6203 76.2129 17.6864C76.2147 17.7525 76.2035 17.8183 76.1798 17.88L73.9298 23.71C73.8915 23.7992 73.827 23.8746 73.7449 23.9264C73.6627 23.9782 73.5668 24.0038 73.4698 24V24Z" fill="#D1D3D4"/>
<path d="M77.63 25.14C77.5704 25.1495 77.5096 25.1495 77.45 25.14C77.388 25.1167 77.3312 25.0814 77.283 25.036C77.2348 24.9906 77.1961 24.9361 77.1691 24.8756C77.1421 24.8151 77.1274 24.7499 77.1259 24.6837C77.1243 24.6175 77.1359 24.5517 77.16 24.49L79.4 18.66C79.4492 18.5365 79.5446 18.437 79.666 18.3828C79.7874 18.3287 79.9252 18.3241 80.05 18.37C80.112 18.3933 80.1687 18.4286 80.217 18.474C80.2652 18.5194 80.3039 18.5739 80.3309 18.6344C80.3578 18.6948 80.3725 18.7601 80.3741 18.8263C80.3757 18.8925 80.3641 18.9583 80.34 19.02L78.09 24.85C78.0516 24.9392 77.9871 25.0146 77.905 25.0664C77.8229 25.1182 77.727 25.1438 77.63 25.14V25.14Z" fill="#D1D3D4"/>
<path d="M82.0498 25.5C81.9902 25.5095 81.9295 25.5095 81.8698 25.5C81.7481 25.4489 81.651 25.3527 81.5987 25.2315C81.5465 25.1102 81.5433 24.9735 81.5898 24.85L83.8298 19C83.8531 18.938 83.8885 18.8812 83.9339 18.833C83.9792 18.7848 84.0337 18.7461 84.0942 18.7191C84.1547 18.6921 84.2199 18.6774 84.2861 18.6759C84.3523 18.6743 84.4182 18.6859 84.4798 18.71C84.6034 18.7592 84.7028 18.8546 84.757 18.976C84.8112 19.0974 84.8158 19.2352 84.7698 19.36L82.5198 25.19C82.4806 25.2821 82.4151 25.3606 82.3315 25.4157C82.2479 25.4708 82.15 25.5002 82.0498 25.5Z" fill="#D1D3D4"/>
<path d="M116.39 142.47C116.303 142.465 116.217 142.442 116.14 142.4L83.08 123C83.0228 122.968 82.9726 122.925 82.9325 122.873C82.8923 122.821 82.8629 122.761 82.8461 122.698C82.8294 122.635 82.8255 122.568 82.8347 122.504C82.844 122.439 82.8662 122.376 82.9 122.32C82.9684 122.208 83.0781 122.128 83.2052 122.096C83.3324 122.064 83.467 122.084 83.58 122.15L116.65 141.53C116.762 141.598 116.842 141.708 116.874 141.835C116.906 141.962 116.886 142.097 116.82 142.21C116.779 142.289 116.718 142.355 116.642 142.401C116.566 142.447 116.479 142.471 116.39 142.47V142.47Z" fill="#231F20"/>
<path d="M182.777 45.6337C182.82 44.6185 182.27 43.7703 181.547 43.7392C180.824 43.7081 180.203 44.506 180.159 45.5213C180.116 46.5365 180.666 47.3848 181.389 47.4158C182.112 47.4469 182.733 46.649 182.777 45.6337Z" fill="#231F20"/>
<path d="M165.47 48.0266C166.189 47.9506 166.686 47.0697 166.579 46.0591C166.473 45.0486 165.803 44.2909 165.083 44.3669C164.364 44.4429 163.867 45.3238 163.974 46.3344C164.081 47.345 164.75 48.1026 165.47 48.0266Z" fill="#231F20"/>
<path d="M171.15 62.16C168.169 62.075 165.235 61.395 162.52 60.16C162.402 60.0999 162.312 59.9964 162.27 59.8714C162.227 59.7464 162.234 59.6097 162.29 59.49C162.319 59.4308 162.359 59.3779 162.408 59.3343C162.457 59.2907 162.515 59.2572 162.577 59.2359C162.639 59.2145 162.705 59.2056 162.771 59.2098C162.837 59.2139 162.901 59.231 162.96 59.26C163.05 59.26 171.96 63.5 177.38 59.21C177.483 59.1282 177.615 59.0908 177.746 59.1057C177.878 59.1207 177.997 59.187 178.08 59.29C178.16 59.3961 178.196 59.5289 178.181 59.6609C178.166 59.7929 178.101 59.9143 178 60C176.028 61.4775 173.612 62.2393 171.15 62.16V62.16Z" fill="#231F20"/>
<path d="M170.82 47.25C170.82 47.25 167.1 53.54 168.17 55.06C169.24 56.58 172.84 56.13 172.84 56.13" fill="white"/>
<path d="M171.64 56.69C170.38 56.69 168.56 56.48 167.76 55.34C166.6 53.69 169.48 48.53 170.39 46.99C170.423 46.9323 170.467 46.8818 170.52 46.8413C170.572 46.8008 170.632 46.7712 170.696 46.7542C170.761 46.7372 170.828 46.7332 170.893 46.7423C170.959 46.7515 171.022 46.7736 171.079 46.8075C171.137 46.8413 171.186 46.8862 171.226 46.9396C171.266 46.9929 171.294 47.0535 171.31 47.118C171.326 47.1824 171.329 47.2494 171.318 47.315C171.308 47.3806 171.285 47.4435 171.25 47.5C169.54 50.39 168.03 53.99 168.58 54.77C169.31 55.77 171.86 55.77 172.78 55.63C172.91 55.618 173.04 55.6557 173.144 55.7354C173.248 55.8151 173.318 55.931 173.34 56.06C173.348 56.1257 173.344 56.1925 173.326 56.2563C173.308 56.3202 173.278 56.3799 173.237 56.432C173.196 56.4842 173.145 56.5276 173.087 56.5599C173.03 56.5921 172.966 56.6126 172.9 56.62C172.482 56.6698 172.061 56.6932 171.64 56.69V56.69Z" fill="#231F20"/>
<path d="M196.14 51.73C196.071 51.7443 195.999 51.7443 195.93 51.73L186.54 47.45C186.48 47.4231 186.427 47.3846 186.382 47.3366C186.338 47.2886 186.303 47.2322 186.281 47.1707C186.258 47.1091 186.249 47.0438 186.252 46.9784C186.255 46.913 186.272 46.8489 186.3 46.79C186.326 46.7294 186.364 46.6747 186.411 46.6291C186.459 46.5836 186.515 46.548 186.577 46.5247C186.639 46.5014 186.704 46.4907 186.77 46.4933C186.836 46.4959 186.9 46.5118 186.96 46.54L196.34 50.82C196.401 50.8459 196.455 50.8838 196.501 50.9314C196.546 50.979 196.582 51.0352 196.605 51.0969C196.629 51.1585 196.639 51.2242 196.637 51.29C196.634 51.3558 196.618 51.4204 196.59 51.48C196.546 51.5593 196.48 51.6247 196.401 51.6689C196.321 51.713 196.231 51.7342 196.14 51.73Z" fill="#231F20"/>
<path d="M189.27 51.9C189.745 50.5557 190.639 49.3992 191.82 48.6C193.555 47.351 195.698 46.8045 197.82 47.07C199.82 47.47 201.06 49.68 201.23 51.63C201.341 53.4484 200.798 55.2465 199.7 56.7C197.22 60.11 192.92 61.57 189.08 59.42" fill="white"/>
<path d="M192.89 60.92C191.487 60.9171 190.11 60.552 188.89 59.86C188.782 59.7912 188.705 59.6838 188.674 59.5597C188.643 59.4357 188.66 59.3045 188.723 59.1931C188.786 59.0817 188.889 58.9985 189.011 58.9608C189.133 58.923 189.265 58.9334 189.38 58.99C192.76 60.88 196.86 59.82 199.38 56.41C200.416 55.0554 200.927 53.372 200.82 51.67C200.67 49.89 199.58 47.91 197.82 47.56C195.799 47.2867 193.75 47.8024 192.1 49C191.013 49.7218 190.185 50.7733 189.74 52C189.697 52.1241 189.606 52.2262 189.488 52.2842C189.371 52.3422 189.235 52.3515 189.11 52.31C188.985 52.2647 188.883 52.1725 188.825 52.0529C188.767 51.9334 188.758 51.796 188.8 51.67C189.305 50.2214 190.266 48.9757 191.54 48.12C193.385 46.7763 195.679 46.1993 197.94 46.51C200.2 46.96 201.57 49.37 201.76 51.51C201.905 53.4776 201.325 55.4304 200.13 57C199.322 58.1822 198.244 59.1546 196.984 59.8364C195.725 60.5182 194.321 60.8897 192.89 60.92V60.92Z" fill="#231F20"/>
<path d="M239.4 116.27C239.4 116.27 269.19 167.91 261.87 175.51C254.55 183.11 209.22 185.89 209.22 185.89L201.28 161.21L227 158.78L211.52 123.71L239.4 116.27Z" fill="#8870E5"/>
<path d="M201.28 161.71C201.147 161.71 201.02 161.657 200.926 161.564C200.833 161.47 200.78 161.343 200.78 161.21C200.78 161.077 200.833 160.95 200.926 160.856C201.02 160.763 201.147 160.71 201.28 160.71L226.22 158.34L204.7 116.06C204.639 115.942 204.627 115.805 204.668 115.678C204.708 115.551 204.797 115.446 204.915 115.385C205.033 115.324 205.17 115.312 205.297 115.353C205.424 115.393 205.529 115.482 205.59 115.6L227.4 158.6C227.437 158.673 227.456 158.753 227.456 158.835C227.456 158.917 227.437 158.997 227.4 159.07C227.361 159.141 227.305 159.201 227.237 159.245C227.169 159.289 227.091 159.315 227.01 159.32L201.34 161.76L201.28 161.71Z" fill="#231F20"/>
<path d="M209.22 186.38C209.087 186.38 208.96 186.327 208.866 186.234C208.773 186.14 208.72 186.013 208.72 185.88C208.72 185.747 208.773 185.62 208.866 185.526C208.96 185.433 209.087 185.38 209.22 185.38C209.55 185.38 242.32 183.81 251.91 179.47C251.97 179.438 252.037 179.419 252.105 179.414C252.173 179.409 252.241 179.417 252.306 179.439C252.37 179.462 252.43 179.497 252.48 179.543C252.53 179.589 252.571 179.645 252.599 179.707C252.627 179.769 252.642 179.836 252.643 179.905C252.644 179.973 252.631 180.041 252.605 180.104C252.579 180.167 252.54 180.224 252.491 180.271C252.442 180.319 252.384 180.356 252.32 180.38C242.56 184.8 210.62 186.31 209.27 186.38H209.22Z" fill="#231F20"/>
</svg>
