<svg width="406" height="306" viewBox="0 0 406 306" fill="none" xmlns="http://www.w3.org/2000/svg">
<g clip-path="url(#clip0_103_285)">
<path opacity="0.24" d="M171.133 305.76C148.254 300.246 126.244 292.181 104.583 283.624C72.49 270.95 39.0296 255.586 21.9848 228.389C9.71021 208.805 7.68542 185.508 8.04576 163.104C8.29743 148.679 9.49858 134.008 15.3213 120.526C26.1316 95.4795 53.5691 76.7074 83.6892 73.7445C101.077 72.0286 118.888 75.1916 136.048 72.1659C184.591 63.5863 210.118 10.1983 258.593 1.34416C271.033 -0.943733 283.937 0.0343409 296.509 1.67018C323.706 5.21642 439.92 74.6597 382.042 203.451C372.81 223.985 354.118 239.989 334.031 252.841C317.495 263.422 298.803 271.464 283.811 283.727C276.175 289.968 269.237 297.455 259.52 300.709C253.537 302.723 247.01 302.94 240.616 303.134L188.538 304.742" fill="#8870E5"/>
<path d="M132.456 142.965V184.827H102.09V216.091H60.2441V184.827H29.9009V142.965H60.2441V113.537H102.09V142.965H132.456Z" fill="#8870E5"/>
<path d="M166.894 264.949L173.93 306L207.047 304.53L208.111 275.417L213.178 305.022L241.148 304.038L251.289 257.754L166.894 264.949Z" fill="#606161"/>
<path d="M166.894 264.949L173.93 306L207.047 304.53L208.111 275.417L213.178 305.022L241.148 304.038L251.289 257.754L166.894 264.949Z" fill="url(#paint0_linear_103_285)"/>
<path d="M182.137 55.0067C182.054 55.9268 182.169 56.854 182.473 57.7261C182.778 58.5982 183.266 59.395 183.905 60.0629C184.203 60.3998 184.58 60.6572 185.003 60.8122C187.193 61.4986 187.245 57.0429 186.593 55.7903C185.821 54.3718 182.395 52.1411 182.137 55.0067Z" fill="url(#paint1_linear_103_285)"/>
<path d="M221.192 51.8894C221.303 52.807 221.217 53.7378 220.94 54.6196C220.663 55.5014 220.201 56.3139 219.584 57.0028C219.3 57.3545 218.932 57.6297 218.515 57.8036C216.347 58.5586 216.147 54.1086 216.765 52.8331C217.468 51.3575 220.82 49.0352 221.192 51.8894Z" fill="url(#paint2_linear_103_285)"/>
<path d="M192.164 81.1859C182.48 86.0419 175.228 94.5472 168.256 102.829C166.848 104.5 166.219 106.53 165.487 108.583C157.771 130.318 159.155 144.223 156.908 161.863C155.049 176.311 150.805 191.033 154.391 205.173C154.391 205.173 156.107 263.153 159.293 272.294L255.024 268.467C255.024 268.467 246.198 174.841 245.403 163.378C241.451 107.76 230.017 95.6797 221.466 88.1525C212.915 80.6253 192.164 81.1859 192.164 81.1859Z" fill="#8870E5"/>
<path d="M192.164 81.1859C182.48 86.042 175.228 94.5472 168.256 102.829C166.848 104.5 166.219 106.53 165.487 108.583C157.771 130.318 159.155 144.223 156.908 161.863C155.049 176.311 150.805 191.033 154.391 205.173C154.391 205.173 156.107 263.154 159.293 272.294L255.024 268.467C255.024 268.467 245.998 179.462 245.752 167.971C244.717 119.457 232.214 96.0286 221.483 88.1525C212.286 81.4147 192.164 81.1859 192.164 81.1859Z" fill="url(#paint3_linear_103_285)"/>
<path d="M203.769 203.48C204.116 203.531 204.47 203.467 204.776 203.296C204.948 203.143 205.083 202.953 205.171 202.74C205.259 202.527 205.298 202.297 205.285 202.067C205.52 198.223 202.957 194.86 201.481 191.308C200.234 188.322 199.731 185.068 198.53 182.059C197.329 179.051 195.19 176.133 192.067 175.276C190.753 174.987 189.405 174.887 188.063 174.978L177.195 175.23C176.896 175.166 176.586 175.177 176.291 175.26C175.997 175.344 175.727 175.498 175.506 175.709C175.284 175.92 175.117 176.183 175.02 176.473C174.923 176.763 174.898 177.073 174.948 177.375C174.679 180.183 172.66 186.789 174.473 189.272C175.285 190.416 177.459 190.787 178.671 191.359C180.426 192.213 182.129 193.168 183.773 194.219C189.744 197.937 196.299 203.48 203.769 203.48Z" fill="url(#paint4_linear_103_285)"/>
<path d="M219.659 176.625C214.511 179.279 212.589 185.502 210.158 190.77C208.75 193.822 207.025 196.717 205.01 199.407C204.398 200.225 203.724 201.157 203.867 202.164C203.99 202.675 204.27 203.134 204.666 203.478C205.063 203.823 205.557 204.035 206.08 204.086C207.126 204.165 208.177 203.996 209.146 203.594C214.208 201.868 218.926 199.263 223.085 195.901C225.807 193.699 228.37 191.119 231.664 189.929C232.951 189.466 234.439 189.146 235.211 188.013C235.608 187.313 235.837 186.53 235.88 185.725C236.16 183.541 236.452 181.316 236.029 179.153C235.319 175.441 233.695 174.406 230.389 174.652C226.871 174.909 222.862 174.972 219.659 176.625Z" fill="url(#paint5_linear_103_285)"/>
<path d="M189.653 87.5119C189.653 87.5119 200.932 97.8704 206.95 90.6864C212.967 83.5024 212.24 86.1907 212.24 86.1907L209.106 153.684L189.653 87.5119Z" fill="#606161"/>
<path d="M203.924 17.5825C201.83 15.1029 198.849 13.5407 195.619 13.2297C192.49 12.9495 189.052 14.0934 187.394 16.7588C186.187 18.6921 186.067 21.0944 186.061 23.3766C186.061 25.5043 186.135 27.7178 187.131 29.5996C188.183 31.435 189.863 32.8285 191.861 33.5234C196.437 35.2393 201.853 33.695 205.337 30.3832C208.82 27.0715 206.732 20.9114 203.924 17.5825Z" fill="#606161"/>
<path d="M203.924 17.5825C201.83 15.1029 198.849 13.5407 195.619 13.2297C192.49 12.9495 189.052 14.0934 187.394 16.7588C186.187 18.6921 186.067 21.0944 186.061 23.3766C186.061 25.5043 186.135 27.7178 187.131 29.5996C188.183 31.435 189.863 32.8285 191.861 33.5234C196.437 35.2393 201.853 33.695 205.337 30.3832C208.82 27.0715 206.732 20.9114 203.924 17.5825Z" fill="url(#paint6_linear_103_285)"/>
<path d="M193.674 67.2698C193.674 67.2698 193.777 81.8265 190.511 84.9438C187.245 88.061 204.067 102.103 210.833 86.0248C210.833 86.0248 206.635 79.1954 207.853 67.5501C209.071 55.9047 193.674 67.2698 193.674 67.2698Z" fill="url(#paint7_linear_103_285)"/>
<path d="M193.216 70.7245L193.268 73.9161C193.268 73.9161 201.893 85.9275 205.279 81.7693C208.665 77.611 207.624 76.7531 207.624 76.7531L207.876 67.5272L193.216 70.7245Z" fill="url(#paint8_linear_103_285)"/>
<path d="M185.295 46.5873C185.295 46.5873 183.224 68.8427 195.173 73.0582C207.121 77.2736 214.105 70.8389 217.188 60.0572C220.271 49.2755 214.946 27.7179 202.317 30.0286C189.687 32.3394 185.295 46.5873 185.295 46.5873Z" fill="url(#paint9_linear_103_285)"/>
<path d="M183.51 54.0801C182.949 53.3229 182.583 52.4387 182.446 51.5062C181.609 47.3493 181.875 43.0455 183.22 39.024C184.565 35.0025 186.941 31.4039 190.111 28.5872C191.397 27.4148 192.896 26.4985 194.526 25.8875C196.165 25.4001 197.877 25.2065 199.582 25.3155C204.908 25.4757 210.25 27.1287 214.454 30.4061C218.658 33.6835 221.603 38.6482 221.947 43.9618C222.113 45.5402 221.881 47.1351 221.272 48.6005C220.96 49.3275 220.483 49.9715 219.878 50.481C219.273 50.9905 218.558 51.3514 217.788 51.5348C215.049 52.0553 214.254 49.5386 212.011 47.8799C208.631 45.3918 207.504 41.6339 199.92 42.3889C187.542 43.6301 186.908 58.0896 183.51 54.0801Z" fill="#606161"/>
<path d="M181.056 88.9933C181.056 88.9933 140.149 118.381 139.302 172.61C138.804 204.034 174.192 198.109 175.336 197.325C176.48 196.541 179.495 169.67 179.495 169.67C179.495 169.67 166.854 169.87 165.281 167.6C163.708 165.329 181.056 88.9933 181.056 88.9933Z" fill="#8870E5"/>
<path d="M181.056 88.9933C181.056 88.9933 140.149 118.381 139.302 172.61C138.804 204.034 174.192 198.109 175.336 197.325C176.48 196.541 179.495 169.67 179.495 169.67C179.495 169.67 166.854 169.87 165.281 167.6C163.708 165.329 181.056 88.9933 181.056 88.9933Z" fill="url(#paint10_linear_103_285)"/>
<path d="M224.658 88.9933C224.658 88.9933 265.571 118.381 266.412 172.61C266.909 204.034 231.521 198.109 230.377 197.325C229.234 196.541 226.225 169.67 226.225 169.67C226.225 169.67 238.866 169.87 240.433 167.6C242 165.329 224.658 88.9933 224.658 88.9933Z" fill="#8870E5"/>
<path d="M224.658 88.9933C224.658 88.9933 265.571 118.381 266.412 172.61C266.909 204.034 231.521 198.109 230.377 197.325C229.234 196.541 226.225 169.67 226.225 169.67C226.225 169.67 238.866 169.87 240.433 167.6C242 165.329 224.658 88.9933 224.658 88.9933Z" fill="url(#paint11_linear_103_285)"/>
<path d="M230.011 98.1506C229.874 98.1499 229.74 98.1066 229.629 98.0267C229.517 97.9468 229.433 97.8342 229.388 97.7045C226.751 89.7941 216.456 85.2583 216.353 85.1897C216.274 85.1561 216.202 85.1071 216.142 85.0456C216.083 84.9841 216.035 84.9113 216.004 84.8315C215.973 84.7516 215.957 84.6663 215.959 84.5805C215.961 84.4947 215.98 84.4101 216.015 84.3317C216.084 84.1732 216.213 84.0483 216.374 83.9841C216.534 83.9199 216.714 83.9215 216.873 83.9886C217.319 84.183 227.809 88.8217 230.635 97.2927C230.688 97.458 230.673 97.6375 230.595 97.7925C230.517 97.9476 230.382 98.0659 230.217 98.122C230.151 98.1427 230.081 98.1524 230.011 98.1506V98.1506Z" fill="#8870E5"/>
<path d="M230.011 98.1506C229.874 98.1499 229.74 98.1066 229.629 98.0267C229.517 97.9468 229.433 97.8342 229.388 97.7045C226.751 89.7941 216.456 85.2583 216.353 85.1897C216.274 85.1561 216.202 85.1071 216.142 85.0456C216.083 84.9841 216.035 84.9113 216.004 84.8315C215.973 84.7516 215.957 84.6663 215.959 84.5805C215.961 84.4947 215.98 84.4101 216.015 84.3317C216.084 84.1732 216.213 84.0483 216.374 83.9841C216.534 83.9199 216.714 83.9215 216.873 83.9886C217.319 84.183 227.809 88.8217 230.635 97.2927C230.688 97.458 230.673 97.6375 230.595 97.7925C230.517 97.9476 230.382 98.0659 230.217 98.122C230.151 98.1427 230.081 98.1524 230.011 98.1506V98.1506Z" fill="url(#paint12_linear_103_285)"/>
<path d="M189.539 142.805C172.225 118.004 185.077 88.5414 185.14 88.4671C185.234 88.3302 185.277 88.1648 185.261 87.9997C185.245 87.8346 185.172 87.6802 185.054 87.5634C185.004 87.5053 184.943 87.4588 184.873 87.4268C184.803 87.3949 184.728 87.3784 184.651 87.3784C184.575 87.3784 184.499 87.3949 184.429 87.4268C184.36 87.4588 184.298 87.5053 184.248 87.5634C183.985 87.8951 170.521 118.021 188.406 142.867C188.612 143.142 189.699 143.028 189.539 142.805Z" fill="#8870E5"/>
<path d="M192.501 81.7179C192.501 81.7179 188.217 85.4929 192.707 94.6159C197.197 103.739 209.518 155.394 209.518 155.394L185.924 117.861L188.252 103.516L183.338 99.7636C183.338 99.7636 183.121 86.2307 185.626 83.3766C188.132 80.5224 190.877 80.6826 192.501 81.7179Z" fill="#8870E5"/>
<path d="M208.5 79.7388C208.5 79.7388 215.42 81.3517 216.622 84.5891C217.823 87.8265 222.747 97.3269 222.747 97.3269L219.75 101.588L224.629 107.068L209.5 155.394C209.5 155.394 212.543 90.1887 210.816 86.0248C209.089 81.8608 208.5 79.7388 208.5 79.7388Z" fill="#8870E5"/>
<path d="M192.501 81.7179C192.501 81.7179 188.217 85.4929 192.707 94.6159C197.197 103.739 209.518 155.394 209.518 155.394L185.924 117.861L188.252 103.516L183.338 99.7636C183.338 99.7636 183.121 86.2307 185.626 83.3766C188.132 80.5224 190.877 80.6826 192.501 81.7179Z" fill="url(#paint13_linear_103_285)"/>
<path d="M209.644 152.414C210.216 139.59 212.36 89.6454 210.828 86.0191C209.112 81.8379 208.494 79.7274 208.494 79.7274C208.511 79.7485 208.536 79.7627 208.563 79.7674C209.329 79.939 215.495 81.5405 216.61 84.572C217.834 87.8151 222.782 97.2927 222.782 97.2927L219.785 101.582L224.629 107.056L209.501 155.394C209.501 155.394 209.535 154.33 209.644 152.414Z" fill="url(#paint14_linear_103_285)"/>
<path d="M219.007 53.5138C219.152 53.3762 219.269 53.2109 219.35 53.0276C219.395 52.8189 219.42 52.6063 219.424 52.3927C219.445 52.1731 219.547 51.9692 219.71 51.8208C219.786 51.7512 219.879 51.7033 219.98 51.6821C220.08 51.661 220.185 51.6674 220.282 51.7006C220.369 51.7394 220.447 51.7961 220.51 51.8671C220.573 51.9381 220.62 52.0218 220.648 52.1125C220.708 52.2972 220.739 52.4902 220.74 52.6844C220.828 53.414 220.729 54.1538 220.454 54.8351C220.191 55.3044 219.851 55.7259 219.447 56.082C219.306 56.2593 219.1 56.3742 218.875 56.4023C218.73 56.3912 218.59 56.3419 218.469 56.2593C218.415 56.2349 218.368 56.1976 218.332 56.1506C218.306 56.1008 218.291 56.0463 218.286 55.9904C218.192 55.4877 218.192 54.9718 218.286 54.469C218.425 54.0853 218.676 53.7523 219.007 53.5138V53.5138Z" fill="url(#paint15_linear_103_285)"/>
<path d="M184.631 56.4538C184.48 56.3255 184.359 56.1653 184.276 55.9847C184.221 55.7773 184.188 55.5644 184.179 55.3498C184.152 55.1285 184.044 54.9249 183.876 54.7779C183.793 54.7103 183.695 54.6652 183.589 54.6472C183.484 54.6291 183.376 54.6387 183.275 54.6749C183.19 54.7173 183.115 54.7768 183.054 54.8496C182.993 54.9225 182.948 55.0071 182.921 55.0982C182.872 55.2848 182.849 55.4772 182.852 55.6702C182.784 56.4032 182.904 57.1414 183.201 57.8151C183.482 58.2752 183.838 58.685 184.254 59.0276C184.398 59.1981 184.603 59.3066 184.826 59.3308C184.97 59.3148 185.108 59.2616 185.226 59.1763C185.281 59.1512 185.329 59.1117 185.363 59.0619C185.388 59.01 185.401 58.9535 185.403 58.8961C185.472 58.3908 185.449 57.8773 185.335 57.3803C185.194 57.0101 184.95 56.6883 184.631 56.4538V56.4538Z" fill="url(#paint16_linear_103_285)"/>
<path d="M209.644 152.414C210.216 139.59 212.36 89.6454 210.828 86.0191C209.112 81.8379 208.494 79.7274 208.494 79.7274C208.511 79.7485 208.536 79.7627 208.563 79.7674C209.049 80.2192 212.257 83.1478 213.058 85.2011C213.859 87.2545 215.009 137.634 209.644 152.414Z" fill="url(#paint17_linear_103_285)"/>
<path d="M173.266 153.375C173.266 153.375 178.374 138.704 191.878 140.62C205.382 142.536 207.733 151.396 207.733 151.396C207.733 151.396 211.348 134.957 229.863 141.804C248.377 148.65 234.049 170.745 231.893 172.215C229.737 173.685 205.794 196.759 205.794 196.759C205.794 196.759 175.754 170.74 174.049 168.051C172.345 165.363 170.606 160.313 173.266 153.375Z" fill="#8870E5"/>
<path d="M178.208 154.055C178.208 154.055 182.658 139.499 194.189 141.306C205.72 143.113 207.664 151.882 207.664 151.882C207.664 151.882 213.819 135.804 229.863 141.804C248.669 148.833 233.746 170.745 231.893 172.215C230.04 173.685 205.731 196.81 205.731 196.81C205.731 196.81 180.227 171.232 178.786 168.578C177.344 165.924 175.891 160.942 178.208 154.055Z" fill="url(#paint18_linear_103_285)"/>
<path d="M176.309 153.083C177.842 148.69 181.554 144.669 186.198 144.4C186.503 144.362 186.812 144.409 187.09 144.538C187.266 144.668 187.414 144.834 187.523 145.024C187.632 145.213 187.701 145.424 187.725 145.642C188.372 148.684 186.787 151.704 186.244 154.765C185.192 160.696 188.057 166.524 190.437 172.055C190.831 172.959 191.18 174.097 190.545 174.852C190.311 175.074 190.035 175.247 189.734 175.362C189.432 175.476 189.112 175.531 188.789 175.521C177.905 176.282 173.329 161.628 176.309 153.083Z" fill="url(#paint19_linear_103_285)"/>
<path d="M205.062 182.071L199.091 162.618L195.516 170.111L176.629 170.705L173.563 167.514L193.234 166.799L199.794 153.037L205.274 170.871L210.004 157.287L213.544 164.877L217.949 153.781L222.135 167.005L235.382 167.022L233.42 170.459L219.602 170.562L217.577 164.162L213.802 173.668L210.473 166.541L205.062 182.071Z" fill="white"/>
<path d="M232.328 136.244C231.806 136.246 231.29 136.131 230.818 135.907C229.52 135.283 228.679 133.882 228.307 131.737C227.615 127.733 225.27 99.9352 228.753 96.9609C229.008 96.7258 229.321 96.5628 229.66 96.4884C229.998 96.414 230.351 96.431 230.681 96.5377C233.598 97.4471 236.143 106.336 236.852 109.035L242.194 130.164C242.28 131.697 241.76 134.294 239.392 134.568L239.163 132.623C240.307 132.486 240.261 130.467 240.261 130.444L234.948 109.527C233.449 103.807 231.121 98.5281 230.069 98.408C227.907 100.261 229.085 124.719 230.234 131.405C230.486 132.864 230.978 133.813 231.664 134.139C232.229 134.327 232.844 134.288 233.38 134.03L234.324 135.746C233.705 136.062 233.022 136.232 232.328 136.244Z" fill="#8870E5"/>
<path d="M232.328 136.244C231.806 136.246 231.29 136.131 230.818 135.907C229.52 135.283 228.679 133.882 228.307 131.737C227.615 127.733 225.27 99.9352 228.753 96.9609C229.008 96.7258 229.321 96.5628 229.66 96.4884C229.998 96.414 230.351 96.431 230.681 96.5377C233.598 97.4471 236.143 106.336 236.852 109.035L242.194 130.164C242.28 131.697 241.76 134.294 239.392 134.568L239.163 132.623C240.307 132.486 240.261 130.467 240.261 130.444L234.948 109.527C233.449 103.807 231.121 98.5281 230.069 98.408C227.907 100.261 229.085 124.719 230.234 131.405C230.486 132.864 230.978 133.813 231.664 134.139C232.229 134.327 232.844 134.288 233.38 134.03L234.324 135.746C233.705 136.062 233.022 136.232 232.328 136.244Z" fill="url(#paint20_linear_103_285)"/>
</g>
<defs>
<linearGradient id="paint0_linear_103_285" x1="166.894" y1="281.88" x2="251.289" y2="281.88" gradientUnits="userSpaceOnUse">
<stop offset="0.12" stop-color="#010101" stop-opacity="0"/>
<stop offset="0.95" stop-color="#010101"/>
</linearGradient>
<linearGradient id="paint1_linear_103_285" x1="182.122" y1="57.2763" x2="186.931" y2="57.1991" gradientUnits="userSpaceOnUse">
<stop stop-color="#E5C6D6"/>
<stop offset="0.42" stop-color="#EAD4D0"/>
<stop offset="1" stop-color="#F0E9CB"/>
</linearGradient>
<linearGradient id="paint2_linear_103_285" x1="221.674" y1="52.1641" x2="216.858" y2="52.2604" gradientUnits="userSpaceOnUse">
<stop stop-color="#E5C6D6"/>
<stop offset="0.42" stop-color="#EAD4D0"/>
<stop offset="1" stop-color="#F0E9CB"/>
</linearGradient>
<linearGradient id="paint3_linear_103_285" x1="208.151" y1="313.012" x2="196.374" y2="82.4099" gradientUnits="userSpaceOnUse">
<stop stop-color="white" stop-opacity="0"/>
<stop offset="0.95" stop-color="white"/>
</linearGradient>
<linearGradient id="paint4_linear_103_285" x1="176.904" y1="196.93" x2="200.126" y2="183.844" gradientUnits="userSpaceOnUse">
<stop stop-color="#E5C6D6"/>
<stop offset="0.42" stop-color="#EAD4D0"/>
<stop offset="1" stop-color="#F0E9CB"/>
</linearGradient>
<linearGradient id="paint5_linear_103_285" x1="232.9" y1="197.365" x2="210.656" y2="184.284" gradientUnits="userSpaceOnUse">
<stop stop-color="#E5C6D6"/>
<stop offset="0.42" stop-color="#EAD4D0"/>
<stop offset="1" stop-color="#F0E9CB"/>
</linearGradient>
<linearGradient id="paint6_linear_103_285" x1="193.759" y1="18.1846" x2="198.654" y2="30.5594" gradientUnits="userSpaceOnUse">
<stop stop-color="#010101" stop-opacity="0"/>
<stop offset="0.95" stop-color="#010101"/>
</linearGradient>
<linearGradient id="paint7_linear_103_285" x1="189.973" y1="78.1444" x2="210.71" y2="77.8114" gradientUnits="userSpaceOnUse">
<stop stop-color="#E5C6D6"/>
<stop offset="0.42" stop-color="#EAD4D0"/>
<stop offset="1" stop-color="#F0E9CB"/>
</linearGradient>
<linearGradient id="paint8_linear_103_285" x1="198.402" y1="85.3827" x2="207.215" y2="37.9215" gradientUnits="userSpaceOnUse">
<stop offset="0.12" stop-color="#010101" stop-opacity="0"/>
<stop offset="0.95" stop-color="#010101"/>
</linearGradient>
<linearGradient id="paint9_linear_103_285" x1="185.195" y1="52.3875" x2="218.034" y2="51.8602" gradientUnits="userSpaceOnUse">
<stop stop-color="#E5C6D6"/>
<stop offset="0.42" stop-color="#EAD4D0"/>
<stop offset="1" stop-color="#F0E9CB"/>
</linearGradient>
<linearGradient id="paint10_linear_103_285" x1="116.711" y1="137.973" x2="175.813" y2="143.923" gradientUnits="userSpaceOnUse">
<stop offset="0.52" stop-color="white" stop-opacity="0.52"/>
<stop offset="0.95" stop-color="white"/>
</linearGradient>
<linearGradient id="paint11_linear_103_285" x1="288.925" y1="140.871" x2="235.279" y2="143.485" gradientUnits="userSpaceOnUse">
<stop offset="0.52" stop-color="white" stop-opacity="0.52"/>
<stop offset="0.95" stop-color="white"/>
</linearGradient>
<linearGradient id="paint12_linear_103_285" x1="224.887" y1="89.9886" x2="215.621" y2="96.1945" gradientUnits="userSpaceOnUse">
<stop offset="0.12" stop-color="#010101" stop-opacity="0"/>
<stop offset="0.95" stop-color="#010101"/>
</linearGradient>
<linearGradient id="paint13_linear_103_285" x1="179.932" y1="125.048" x2="196.696" y2="119.155" gradientUnits="userSpaceOnUse">
<stop stop-color="white" stop-opacity="0"/>
<stop offset="0.95" stop-color="white"/>
</linearGradient>
<linearGradient id="paint14_linear_103_285" x1="232.128" y1="116.477" x2="206.372" y2="117.706" gradientUnits="userSpaceOnUse">
<stop stop-color="white" stop-opacity="0"/>
<stop offset="0.11" stop-color="white" stop-opacity="0.18"/>
<stop offset="0.29" stop-color="white" stop-opacity="0.42"/>
<stop offset="0.45" stop-color="white" stop-opacity="0.63"/>
<stop offset="0.6" stop-color="white" stop-opacity="0.79"/>
<stop offset="0.74" stop-color="white" stop-opacity="0.9"/>
<stop offset="0.86" stop-color="white" stop-opacity="0.98"/>
<stop offset="0.95" stop-color="white"/>
</linearGradient>
<linearGradient id="paint15_linear_103_285" x1="221.071" y1="54.3284" x2="211.305" y2="52.4659" gradientUnits="userSpaceOnUse">
<stop offset="0.12" stop-color="#010101" stop-opacity="0"/>
<stop offset="0.95" stop-color="#010101"/>
</linearGradient>
<linearGradient id="paint16_linear_103_285" x1="183.008" y1="55.4793" x2="192.708" y2="53.2655" gradientUnits="userSpaceOnUse">
<stop offset="0.12" stop-color="#010101" stop-opacity="0"/>
<stop offset="0.95" stop-color="#010101"/>
</linearGradient>
<linearGradient id="paint17_linear_103_285" x1="188.383" y1="122.974" x2="211.102" y2="115.401" gradientUnits="userSpaceOnUse">
<stop stop-color="white" stop-opacity="0"/>
<stop offset="0.95" stop-color="white"/>
</linearGradient>
<linearGradient id="paint18_linear_103_285" x1="192.65" y1="135.941" x2="275.083" y2="253.693" gradientUnits="userSpaceOnUse">
<stop offset="0.12" stop-color="#010101" stop-opacity="0"/>
<stop offset="0.95" stop-color="#010101"/>
</linearGradient>
<linearGradient id="paint19_linear_103_285" x1="170.069" y1="157.876" x2="215.449" y2="163.521" gradientUnits="userSpaceOnUse">
<stop stop-color="white" stop-opacity="0"/>
<stop offset="0.95" stop-color="white"/>
</linearGradient>
<linearGradient id="paint20_linear_103_285" x1="211.886" y1="113.565" x2="288.507" y2="124.616" gradientUnits="userSpaceOnUse">
<stop offset="0.12" stop-color="#010101" stop-opacity="0"/>
<stop offset="0.95" stop-color="#010101"/>
</linearGradient>
<clipPath id="clip0_103_285">
<rect width="406" height="306" fill="white"/>
</clipPath>
</defs>
</svg>
